<svg width="68" height="68" viewBox="0 0 68 68" fill="none" xmlns="http://www.w3.org/2000/svg">
<path d="M35.9955 0.61511C37.6502 -0.429178 39.8182 -0.117563 41.1116 1.35066C41.6092 1.91547 42.2566 2.32778 42.9788 2.53984C43.701 2.7519 44.4685 2.75504 45.1925 2.54889C47.0743 2.01306 49.0668 2.923 49.8941 4.69607C50.2123 5.37816 50.7173 5.95615 51.3505 6.36309C51.9837 6.77004 52.7192 6.98929 53.4719 6.99546C55.4284 7.01145 57.0838 8.44583 57.3782 10.3803C57.4914 11.1245 57.8131 11.8213 58.306 12.3901C58.7989 12.959 59.4428 13.3766 60.1633 13.5946C62.0361 14.1612 63.2203 16.0038 62.9577 17.9428C62.8567 18.6887 62.969 19.4479 63.2817 20.1326C63.5944 20.8173 64.0946 21.3994 64.7245 21.8115C66.3618 22.8828 66.9789 24.9844 66.1807 26.7708C65.8737 27.458 65.7676 28.2182 65.8747 28.9632C65.9818 29.7082 66.2978 30.4077 66.786 30.9805C68.0552 32.4698 68.0552 34.66 66.786 36.1493C66.2978 36.7221 65.9818 37.4216 65.8747 38.1666C65.7676 38.9116 65.8737 39.6718 66.1807 40.359C66.9789 42.1454 66.3619 44.2471 64.7245 45.3183C64.0946 45.7304 63.5944 46.3125 63.2817 46.9972C62.969 47.6819 62.8567 48.4411 62.9577 49.187C63.2204 51.126 62.0361 52.9686 60.1633 53.5353C59.4428 53.7532 58.7989 54.1708 58.306 54.7396C57.813 55.3085 57.4914 56.0053 57.3782 56.7495C57.0838 58.6838 55.4284 60.1182 53.4719 60.1343C52.7192 60.1405 51.9837 60.3597 51.3505 60.7667C50.7173 61.1736 50.2123 61.7516 49.8941 62.4337C49.0666 64.2068 47.0743 65.1167 45.1925 64.5809C44.4685 64.3748 43.701 64.378 42.9788 64.59C42.2566 64.8021 41.6092 65.2144 41.1116 65.7791C39.8182 67.2474 37.6502 67.5591 35.9955 66.5147C35.3589 66.113 34.6216 65.8997 33.8689 65.8997C33.1162 65.8997 32.3789 66.113 31.7424 66.5147C30.0877 67.559 27.9197 67.2472 26.6262 65.7791C26.1287 65.2143 25.4813 64.802 24.7591 64.59C24.0369 64.3779 23.2694 64.3748 22.5454 64.5809C20.6636 65.1167 18.6711 64.2068 17.8438 62.4337C17.5256 61.7516 17.0206 61.1737 16.3874 60.7667C15.7542 60.3598 15.0187 60.1405 14.266 60.1343C12.3095 60.1184 10.6541 58.684 10.3597 56.7495C10.2465 56.0053 9.92483 55.3085 9.43192 54.7397C8.93902 54.1708 8.29506 53.7532 7.57462 53.5353C5.70175 52.9686 4.51764 51.126 4.78015 49.187C4.88118 48.4411 4.76885 47.6819 4.45617 46.9972C4.1435 46.3125 3.64327 45.7304 3.01342 45.3183C1.37614 44.247 0.758952 42.1454 1.55714 40.359C1.86421 39.6718 1.97033 38.9116 1.86321 38.1666C1.7561 37.4216 1.44014 36.7221 0.951912 36.1493C-0.317304 34.66 -0.317304 32.4696 0.951912 30.9805C1.44014 30.4077 1.7561 29.7082 1.86321 28.9632C1.97033 28.2182 1.86421 27.458 1.55714 26.7708C0.758952 24.9844 1.37599 22.8827 3.01342 21.8115C3.64327 21.3994 4.1435 20.8173 4.45617 20.1326C4.76885 19.4479 4.88118 18.6887 4.78015 17.9428C4.5175 16.0038 5.70175 14.1612 7.57462 13.5946C8.29507 13.3766 8.93903 12.959 9.43194 12.3902C9.92485 11.8213 10.2465 11.1245 10.3597 10.3803C10.6541 8.44597 12.3095 7.01159 14.266 6.99546C15.0187 6.98932 15.7542 6.77008 16.3874 6.36314C17.0206 5.95619 17.5256 5.37818 17.8438 4.69607C18.6713 2.923 20.6636 2.01306 22.5454 2.54889C23.2694 2.75502 24.0369 2.75188 24.7591 2.53982C25.4813 2.32776 26.1287 1.91546 26.6262 1.35066C27.9197 -0.117563 30.0877 -0.429178 31.7424 0.61511C32.3789 1.01685 33.1162 1.23007 33.8689 1.23007C34.6216 1.23007 35.3589 1.01685 35.9955 0.61511Z" fill="#34A853"/>
<path d="M23.1133 29.3554H19.3477C18.8623 29.3554 18.4688 29.749 18.4688 30.2344V39.6484C18.4688 40.1338 18.8623 40.5273 19.3477 40.5273H23.1133C23.5987 40.5273 23.9922 40.1338 23.9922 39.6484V30.2344C23.9922 29.749 23.5987 29.3554 23.1133 29.3554ZM39.5879 39.5235C40.0733 39.5235 40.4668 39.1299 40.4668 38.6446V36.6992H40.5293C41.0147 36.6992 41.4082 36.3057 41.4082 35.8203C41.4082 35.3349 41.0147 34.9414 40.5293 34.9414H40.4668V30.1719C40.4668 29.9981 40.4153 29.8282 40.3187 29.6836C40.2222 29.5391 40.0849 29.4265 39.9243 29.3599C39.7637 29.2934 39.587 29.276 39.4166 29.3099C39.2461 29.3438 39.0895 29.4274 38.9665 29.5503C38.9665 29.5503 36.2224 32.2935 34.9214 33.5936C34.3371 34.1811 34.002 34.9928 34.002 35.8203C34.002 36.3057 34.3955 36.6992 34.8809 36.6992H38.709V38.6446C38.709 39.1299 39.1025 39.5235 39.5879 39.5235ZM36.0706 34.9414C36.1005 34.9044 36.1323 34.8689 36.1658 34.8351C36.8241 34.1772 37.8537 33.1482 38.709 32.2932V34.9414H36.0706ZM32.4648 38.6446C32.4648 38.1592 32.0713 37.7656 31.5859 37.7656H28.0687C28.0985 37.7286 28.1303 37.6931 28.1638 37.6593C29.5118 36.3122 30.8596 34.965 32.2073 33.6177C32.2889 33.5361 32.3537 33.4392 32.3979 33.3325C32.4421 33.2259 32.4649 33.1116 32.4649 32.9961V32.5254C32.4649 30.7431 31.0148 29.293 29.2325 29.293C27.4332 29.293 26 30.7504 26 32.5244V32.5254C26 33.0108 26.3936 33.4038 26.8789 33.4038C27.3643 33.4038 27.7579 33.0098 27.7579 32.5244C27.7579 31.7181 28.4071 31.0508 29.2325 31.0508C30.0456 31.0508 30.7071 31.7123 30.7071 32.5254V32.632C29.4446 33.894 28.1821 35.156 26.9194 36.4179C26.3351 37.0054 26 37.817 26 38.6446C26 39.1299 26.3936 39.5235 26.8789 39.5235H31.586C32.0713 39.5235 32.4648 39.1299 32.4648 38.6446ZM33.4688 20.7578C37.88 20.7578 41.597 23.7876 42.6481 27.8755C43.0131 27.6925 43.4159 27.5973 43.8243 27.5976H44.3899C43.2003 22.671 38.7555 19 33.4688 19C28.182 19 23.7372 22.671 22.5477 27.5976H23.1133C23.5216 27.5973 23.9244 27.6925 24.2895 27.8755C25.3405 23.7876 29.0575 20.7578 33.4688 20.7578ZM42.4764 41.9135C41.5979 43.9389 39.579 45.3594 37.2344 45.3594H36.0863C35.7183 44.2663 34.6843 43.4766 33.4688 43.4766C31.946 43.4766 30.7071 44.7155 30.7071 46.2383C30.7071 47.7611 31.946 49 33.4688 49C34.6843 49 35.7182 48.2103 36.0862 47.1172H37.2343C40.4248 47.1172 43.154 45.1061 44.222 42.2852H43.8242C43.332 42.2852 42.8711 42.1492 42.4764 41.9135ZM47.5898 29.3554H43.8242C43.3388 29.3554 42.9453 29.749 42.9453 30.2344V39.6484C42.9453 40.1338 43.3388 40.5273 43.8242 40.5273H47.5898C48.0752 40.5273 48.4688 40.1338 48.4688 39.6484V30.2344C48.4688 29.749 48.0752 29.3554 47.5898 29.3554Z" fill="white"/>
</svg>
