<svg width="68" height="68" viewBox="0 0 68 68" fill="none" xmlns="http://www.w3.org/2000/svg">
<path d="M35.9955 0.61511C37.6502 -0.429178 39.8182 -0.117563 41.1116 1.35066C41.6092 1.91547 42.2566 2.32778 42.9788 2.53984C43.701 2.7519 44.4685 2.75504 45.1925 2.54889C47.0743 2.01306 49.0668 2.923 49.8941 4.69607C50.2123 5.37816 50.7173 5.95615 51.3505 6.36309C51.9837 6.77004 52.7192 6.98929 53.4719 6.99546C55.4284 7.01145 57.0838 8.44583 57.3782 10.3803C57.4914 11.1245 57.8131 11.8213 58.306 12.3901C58.7989 12.959 59.4428 13.3766 60.1633 13.5946C62.0361 14.1612 63.2203 16.0038 62.9577 17.9428C62.8567 18.6887 62.969 19.4479 63.2817 20.1326C63.5944 20.8173 64.0946 21.3994 64.7245 21.8115C66.3618 22.8828 66.9789 24.9844 66.1807 26.7708C65.8737 27.458 65.7676 28.2182 65.8747 28.9632C65.9818 29.7082 66.2978 30.4077 66.786 30.9805C68.0552 32.4698 68.0552 34.66 66.786 36.1493C66.2978 36.7221 65.9818 37.4216 65.8747 38.1666C65.7676 38.9116 65.8737 39.6718 66.1807 40.359C66.9789 42.1454 66.3619 44.2471 64.7245 45.3183C64.0946 45.7304 63.5944 46.3125 63.2817 46.9972C62.969 47.6819 62.8567 48.4411 62.9577 49.187C63.2204 51.126 62.0361 52.9686 60.1633 53.5353C59.4428 53.7532 58.7989 54.1708 58.306 54.7396C57.813 55.3085 57.4914 56.0053 57.3782 56.7495C57.0838 58.6838 55.4284 60.1182 53.4719 60.1343C52.7192 60.1405 51.9837 60.3597 51.3505 60.7667C50.7173 61.1736 50.2123 61.7516 49.8941 62.4337C49.0666 64.2068 47.0743 65.1167 45.1925 64.5809C44.4685 64.3748 43.701 64.378 42.9788 64.59C42.2566 64.8021 41.6092 65.2144 41.1116 65.7791C39.8182 67.2474 37.6502 67.5591 35.9955 66.5147C35.3589 66.113 34.6216 65.8997 33.8689 65.8997C33.1162 65.8997 32.3789 66.113 31.7424 66.5147C30.0877 67.559 27.9197 67.2472 26.6262 65.7791C26.1287 65.2143 25.4813 64.802 24.7591 64.59C24.0369 64.3779 23.2694 64.3748 22.5454 64.5809C20.6636 65.1167 18.6711 64.2068 17.8438 62.4337C17.5256 61.7516 17.0206 61.1737 16.3874 60.7667C15.7542 60.3598 15.0187 60.1405 14.266 60.1343C12.3095 60.1184 10.6541 58.684 10.3597 56.7495C10.2465 56.0053 9.92483 55.3085 9.43192 54.7397C8.93902 54.1708 8.29506 53.7532 7.57462 53.5353C5.70175 52.9686 4.51764 51.126 4.78015 49.187C4.88118 48.4411 4.76885 47.6819 4.45617 46.9972C4.1435 46.3125 3.64327 45.7304 3.01342 45.3183C1.37614 44.247 0.758952 42.1454 1.55714 40.359C1.86421 39.6718 1.97033 38.9116 1.86321 38.1666C1.7561 37.4216 1.44014 36.7221 0.951912 36.1493C-0.317304 34.66 -0.317304 32.4696 0.951912 30.9805C1.44014 30.4077 1.7561 29.7082 1.86321 28.9632C1.97033 28.2182 1.86421 27.458 1.55714 26.7708C0.758952 24.9844 1.37599 22.8827 3.01342 21.8115C3.64327 21.3994 4.1435 20.8173 4.45617 20.1326C4.76885 19.4479 4.88118 18.6887 4.78015 17.9428C4.5175 16.0038 5.70175 14.1612 7.57462 13.5946C8.29507 13.3766 8.93903 12.959 9.43194 12.3902C9.92485 11.8213 10.2465 11.1245 10.3597 10.3803C10.6541 8.44597 12.3095 7.01159 14.266 6.99546C15.0187 6.98932 15.7542 6.77008 16.3874 6.36314C17.0206 5.95619 17.5256 5.37818 17.8438 4.69607C18.6713 2.923 20.6636 2.01306 22.5454 2.54889C23.2694 2.75502 24.0369 2.75188 24.7591 2.53982C25.4813 2.32776 26.1287 1.91546 26.6262 1.35066C27.9197 -0.117563 30.0877 -0.429178 31.7424 0.61511C32.3789 1.01685 33.1162 1.23007 33.8689 1.23007C34.6216 1.23007 35.3589 1.01685 35.9955 0.61511Z" fill="#34A853"/>
<mask id="mask0_471_32" style="mask-type:alpha" maskUnits="userSpaceOnUse" x="19" y="18" width="30" height="30">
<rect x="19" y="18" width="30" height="30" fill="#D9D9D9"/>
</mask>
<g mask="url(#mask0_471_32)">
<path d="M34 45.5C33.5 45.5 33.0208 45.4062 32.5625 45.2187C32.1042 45.0312 31.6979 44.7604 31.3438 44.4062C30.7396 43.8021 30.2187 43.4063 29.7812 43.2188C29.3438 43.0313 28.6875 42.9375 27.8125 42.9375C26.7708 42.9375 25.8854 42.5729 25.1562 41.8438C24.4271 41.1146 24.0625 40.2292 24.0625 39.1875C24.0625 38.3125 23.9688 37.6562 23.7813 37.2188C23.5938 36.7813 23.1979 36.2604 22.5938 35.6562C22.2396 35.3021 21.9688 34.8958 21.7813 34.4375C21.5938 33.9792 21.5 33.5 21.5 33C21.5 32.5 21.5938 32.0208 21.7813 31.5625C21.9688 31.1042 22.2396 30.6979 22.5938 30.3438C23.1979 29.7396 23.5938 29.2187 23.7813 28.7812C23.9688 28.3438 24.0625 27.6875 24.0625 26.8125C24.0625 25.7708 24.4271 24.8854 25.1562 24.1562C25.8854 23.4271 26.7708 23.0625 27.8125 23.0625C28.6875 23.0625 29.3438 22.9688 29.7812 22.7813C30.2187 22.5938 30.7396 22.1979 31.3438 21.5938C31.6979 21.2396 32.1042 20.9688 32.5625 20.7813C33.0208 20.5938 33.5 20.5 34 20.5C34.5 20.5 34.9792 20.5938 35.4375 20.7813C35.8958 20.9688 36.3021 21.2396 36.6562 21.5938C37.2604 22.1979 37.7813 22.5938 38.2188 22.7813C38.6562 22.9688 39.3125 23.0625 40.1875 23.0625C41.2292 23.0625 42.1146 23.4271 42.8438 24.1562C43.5729 24.8854 43.9375 25.7708 43.9375 26.8125C43.9375 27.6875 44.0313 28.3438 44.2188 28.7812C44.4063 29.2187 44.8021 29.7396 45.4062 30.3438C45.7604 30.6979 46.0312 31.1042 46.2187 31.5625C46.4062 32.0208 46.5 32.5 46.5 33C46.5 33.5 46.4062 33.9792 46.2187 34.4375C46.0312 34.8958 45.7604 35.3021 45.4062 35.6562C44.8021 36.2604 44.4063 36.7813 44.2188 37.2188C44.0313 37.6562 43.9375 38.3125 43.9375 39.1875C43.9375 40.2292 43.5729 41.1146 42.8438 41.8438C42.1146 42.5729 41.2292 42.9375 40.1875 42.9375C39.3125 42.9375 38.6562 43.0313 38.2188 43.2188C37.7813 43.4063 37.2604 43.8021 36.6562 44.4062C36.3021 44.7604 35.8958 45.0312 35.4375 45.2187C34.9792 45.4062 34.5 45.5 34 45.5ZM34 43C34.1667 43 34.3281 42.9635 34.4844 42.8906C34.6406 42.8177 34.7708 42.7292 34.875 42.625C35.7292 41.7708 36.5312 41.1927 37.2812 40.8906C38.0313 40.5885 39 40.4375 40.1875 40.4375C40.5417 40.4375 40.8385 40.3177 41.0781 40.0781C41.3177 39.8385 41.4375 39.5417 41.4375 39.1875C41.4375 37.9792 41.5885 37.0052 41.8906 36.2656C42.1927 35.526 42.7708 34.7292 43.625 33.875C43.875 33.625 44 33.3333 44 33C44 32.6667 43.875 32.375 43.625 32.125C42.7708 31.2708 42.1927 30.4688 41.8906 29.7188C41.5885 28.9687 41.4375 28 41.4375 26.8125C41.4375 26.4583 41.3177 26.1615 41.0781 25.9219C40.8385 25.6823 40.5417 25.5625 40.1875 25.5625C38.9792 25.5625 38.0052 25.4115 37.2656 25.1094C36.526 24.8073 35.7292 24.2292 34.875 23.375C34.7708 23.2708 34.6406 23.1823 34.4844 23.1094C34.3281 23.0365 34.1667 23 34 23C33.8333 23 33.6719 23.0365 33.5156 23.1094C33.3594 23.1823 33.2292 23.2708 33.125 23.375C32.2708 24.2292 31.4688 24.8073 30.7188 25.1094C29.9687 25.4115 29 25.5625 27.8125 25.5625C27.4583 25.5625 27.1615 25.6823 26.9219 25.9219C26.6823 26.1615 26.5625 26.4583 26.5625 26.8125C26.5625 28.0208 26.4115 28.9948 26.1094 29.7344C25.8073 30.474 25.2292 31.2708 24.375 32.125C24.125 32.375 24 32.6667 24 33C24 33.3333 24.125 33.625 24.375 33.875C25.2292 34.7292 25.8073 35.5312 26.1094 36.2812C26.4115 37.0313 26.5625 38 26.5625 39.1875C26.5625 39.5417 26.6823 39.8385 26.9219 40.0781C27.1615 40.3177 27.4583 40.4375 27.8125 40.4375C29.0208 40.4375 29.9948 40.5885 30.7344 40.8906C31.474 41.1927 32.2708 41.7708 33.125 42.625C33.2292 42.7292 33.3594 42.8177 33.5156 42.8906C33.6719 42.9635 33.8333 43 34 43ZM37.125 38C37.6458 38 38.0885 37.8177 38.4531 37.4531C38.8177 37.0885 39 36.6458 39 36.125C39 35.6042 38.8177 35.1615 38.4531 34.7969C38.0885 34.4323 37.6458 34.25 37.125 34.25C36.6042 34.25 36.1615 34.4323 35.7969 34.7969C35.4323 35.1615 35.25 35.6042 35.25 36.125C35.25 36.6458 35.4323 37.0885 35.7969 37.4531C36.1615 37.8177 36.6042 38 37.125 38ZM29.9375 37.0625C30.1875 37.3125 30.4792 37.4375 30.8125 37.4375C31.1458 37.4375 31.4375 37.3125 31.6875 37.0625L38.0625 30.7188C38.3125 30.4688 38.4375 30.1719 38.4375 29.8281C38.4375 29.4844 38.3125 29.1875 38.0625 28.9375C37.8125 28.6875 37.5156 28.5625 37.1719 28.5625C36.8281 28.5625 36.5312 28.6875 36.2812 28.9375L29.9375 35.3125C29.6875 35.5625 29.5625 35.8542 29.5625 36.1875C29.5625 36.5208 29.6875 36.8125 29.9375 37.0625ZM30.875 31.75C31.3958 31.75 31.8385 31.5677 32.2031 31.2031C32.5677 30.8385 32.75 30.3958 32.75 29.875C32.75 29.3542 32.5677 28.9115 32.2031 28.5469C31.8385 28.1823 31.3958 28 30.875 28C30.3542 28 29.9115 28.1823 29.5469 28.5469C29.1823 28.9115 29 29.3542 29 29.875C29 30.3958 29.1823 30.8385 29.5469 31.2031C29.9115 31.5677 30.3542 31.75 30.875 31.75Z" fill="white"/>
</g>
</svg>
