<svg width="68" height="68" viewBox="0 0 68 68" fill="none" xmlns="http://www.w3.org/2000/svg">
<path d="M35.9955 0.61511C37.6502 -0.429178 39.8182 -0.117563 41.1116 1.35066C41.6092 1.91547 42.2566 2.32778 42.9788 2.53984C43.701 2.7519 44.4685 2.75504 45.1925 2.54889C47.0743 2.01306 49.0668 2.923 49.8941 4.69607C50.2123 5.37816 50.7173 5.95615 51.3505 6.36309C51.9837 6.77004 52.7192 6.98929 53.4719 6.99546C55.4284 7.01145 57.0838 8.44583 57.3782 10.3803C57.4914 11.1245 57.8131 11.8213 58.306 12.3901C58.7989 12.959 59.4428 13.3766 60.1633 13.5946C62.0361 14.1612 63.2203 16.0038 62.9577 17.9428C62.8567 18.6887 62.969 19.4479 63.2817 20.1326C63.5944 20.8173 64.0946 21.3994 64.7245 21.8115C66.3618 22.8828 66.9789 24.9844 66.1807 26.7708C65.8737 27.458 65.7676 28.2182 65.8747 28.9632C65.9818 29.7082 66.2978 30.4077 66.786 30.9805C68.0552 32.4698 68.0552 34.66 66.786 36.1493C66.2978 36.7221 65.9818 37.4216 65.8747 38.1666C65.7676 38.9116 65.8737 39.6718 66.1807 40.359C66.9789 42.1454 66.3619 44.2471 64.7245 45.3183C64.0946 45.7304 63.5944 46.3125 63.2817 46.9972C62.969 47.6819 62.8567 48.4411 62.9577 49.187C63.2204 51.126 62.0361 52.9686 60.1633 53.5353C59.4428 53.7532 58.7989 54.1708 58.306 54.7396C57.813 55.3085 57.4914 56.0053 57.3782 56.7495C57.0838 58.6838 55.4284 60.1182 53.4719 60.1343C52.7192 60.1405 51.9837 60.3597 51.3505 60.7667C50.7173 61.1736 50.2123 61.7516 49.8941 62.4337C49.0666 64.2068 47.0743 65.1167 45.1925 64.5809C44.4685 64.3748 43.701 64.378 42.9788 64.59C42.2566 64.8021 41.6092 65.2144 41.1116 65.7791C39.8182 67.2474 37.6502 67.5591 35.9955 66.5147C35.3589 66.113 34.6216 65.8997 33.8689 65.8997C33.1162 65.8997 32.3789 66.113 31.7424 66.5147C30.0877 67.559 27.9197 67.2472 26.6262 65.7791C26.1287 65.2143 25.4813 64.802 24.7591 64.59C24.0369 64.3779 23.2694 64.3748 22.5454 64.5809C20.6636 65.1167 18.6711 64.2068 17.8438 62.4337C17.5256 61.7516 17.0206 61.1737 16.3874 60.7667C15.7542 60.3598 15.0187 60.1405 14.266 60.1343C12.3095 60.1184 10.6541 58.684 10.3597 56.7495C10.2465 56.0053 9.92483 55.3085 9.43192 54.7397C8.93902 54.1708 8.29506 53.7532 7.57462 53.5353C5.70175 52.9686 4.51764 51.126 4.78015 49.187C4.88118 48.4411 4.76885 47.6819 4.45617 46.9972C4.1435 46.3125 3.64327 45.7304 3.01342 45.3183C1.37614 44.247 0.758952 42.1454 1.55714 40.359C1.86421 39.6718 1.97033 38.9116 1.86321 38.1666C1.7561 37.4216 1.44014 36.7221 0.951912 36.1493C-0.317304 34.66 -0.317304 32.4696 0.951912 30.9805C1.44014 30.4077 1.7561 29.7082 1.86321 28.9632C1.97033 28.2182 1.86421 27.458 1.55714 26.7708C0.758952 24.9844 1.37599 22.8827 3.01342 21.8115C3.64327 21.3994 4.1435 20.8173 4.45617 20.1326C4.76885 19.4479 4.88118 18.6887 4.78015 17.9428C4.5175 16.0038 5.70175 14.1612 7.57462 13.5946C8.29507 13.3766 8.93903 12.959 9.43194 12.3902C9.92485 11.8213 10.2465 11.1245 10.3597 10.3803C10.6541 8.44597 12.3095 7.01159 14.266 6.99546C15.0187 6.98932 15.7542 6.77008 16.3874 6.36314C17.0206 5.95619 17.5256 5.37818 17.8438 4.69607C18.6713 2.923 20.6636 2.01306 22.5454 2.54889C23.2694 2.75502 24.0369 2.75188 24.7591 2.53982C25.4813 2.32776 26.1287 1.91546 26.6262 1.35066C27.9197 -0.117563 30.0877 -0.429178 31.7424 0.61511C32.3789 1.01685 33.1162 1.23007 33.8689 1.23007C34.6216 1.23007 35.3589 1.01685 35.9955 0.61511Z" fill="#34A853"/>
<path d="M27.5334 33.7989L29.098 34.6812V36.8163L27.5334 35.934V33.7989ZM32.1272 36.3869L29.7509 35.0517V37.3751C29.7568 37.6163 29.4744 37.7868 29.2627 37.6574L27.0452 36.4105C26.9393 36.3516 26.8805 36.2458 26.8805 36.1281V33.4342L24.5101 32.099V40.8043L32.1272 45.204V36.3869ZM40.2619 40.8043V32.1049L32.7801 36.3811V45.1216L40.2619 40.8043ZM37.2327 30.4226L30.1097 34.4988L32.4507 35.8164L39.9561 31.5285L37.6445 30.1933L37.2327 30.4226ZM35.4093 28.9051L27.851 33.2342L29.445 34.1283L36.9798 29.8168C36.8386 29.7345 35.5858 29.011 35.4093 28.9051ZM24.8277 31.5285C25.4159 31.8578 26.6041 32.5284 27.1923 32.8578L34.7564 28.5287L32.386 27.1641L24.8277 31.5285ZM44.4322 26.6347C42.0324 22.9055 37.7092 20.4292 33.2918 20.2057C33.1212 20.194 32.9918 20.0528 32.9918 19.8822V18L27.5452 21.5233L32.9918 25.0466V23.382C32.9918 23.1996 33.1448 23.0467 33.3271 23.0585C38.2738 23.0702 42.9206 26.5994 44.3499 31.3285C45.9733 36.1105 44.0617 41.663 40.1208 44.7099C34.1682 49.3742 25.1218 47.4685 21.3691 40.9513C25.8159 49.3625 37.368 50.4212 43.444 43.1806C47.3732 38.5456 47.7379 31.7226 44.4322 26.6347Z" fill="white"/>
</svg>
