<svg width="68" height="68" viewBox="0 0 68 68" fill="none" xmlns="http://www.w3.org/2000/svg">
<path d="M35.9955 0.61511C37.6502 -0.429178 39.8182 -0.117563 41.1116 1.35066C41.6092 1.91547 42.2566 2.32778 42.9788 2.53984C43.701 2.7519 44.4685 2.75504 45.1925 2.54889C47.0743 2.01306 49.0668 2.923 49.8941 4.69607C50.2123 5.37816 50.7173 5.95615 51.3505 6.36309C51.9837 6.77004 52.7192 6.98929 53.4719 6.99546C55.4284 7.01145 57.0838 8.44583 57.3782 10.3803C57.4914 11.1245 57.8131 11.8213 58.306 12.3901C58.7989 12.959 59.4428 13.3766 60.1633 13.5946C62.0361 14.1612 63.2203 16.0038 62.9577 17.9428C62.8567 18.6887 62.969 19.4479 63.2817 20.1326C63.5944 20.8173 64.0946 21.3994 64.7245 21.8115C66.3618 22.8828 66.9789 24.9844 66.1807 26.7708C65.8737 27.458 65.7676 28.2182 65.8747 28.9632C65.9818 29.7082 66.2978 30.4077 66.786 30.9805C68.0552 32.4698 68.0552 34.66 66.786 36.1493C66.2978 36.7221 65.9818 37.4216 65.8747 38.1666C65.7676 38.9116 65.8737 39.6718 66.1807 40.359C66.9789 42.1454 66.3619 44.2471 64.7245 45.3183C64.0946 45.7304 63.5944 46.3125 63.2817 46.9972C62.969 47.6819 62.8567 48.4411 62.9577 49.187C63.2204 51.126 62.0361 52.9686 60.1633 53.5353C59.4428 53.7532 58.7989 54.1708 58.306 54.7396C57.813 55.3085 57.4914 56.0053 57.3782 56.7495C57.0838 58.6838 55.4284 60.1182 53.4719 60.1343C52.7192 60.1405 51.9837 60.3597 51.3505 60.7667C50.7173 61.1736 50.2123 61.7516 49.8941 62.4337C49.0666 64.2068 47.0743 65.1167 45.1925 64.5809C44.4685 64.3748 43.701 64.378 42.9788 64.59C42.2566 64.8021 41.6092 65.2144 41.1116 65.7791C39.8182 67.2474 37.6502 67.5591 35.9955 66.5147C35.3589 66.113 34.6216 65.8997 33.8689 65.8997C33.1162 65.8997 32.3789 66.113 31.7424 66.5147C30.0877 67.559 27.9197 67.2472 26.6262 65.7791C26.1287 65.2143 25.4813 64.802 24.7591 64.59C24.0369 64.3779 23.2694 64.3748 22.5454 64.5809C20.6636 65.1167 18.6711 64.2068 17.8438 62.4337C17.5256 61.7516 17.0206 61.1737 16.3874 60.7667C15.7542 60.3598 15.0187 60.1405 14.266 60.1343C12.3095 60.1184 10.6541 58.684 10.3597 56.7495C10.2465 56.0053 9.92483 55.3085 9.43192 54.7397C8.93902 54.1708 8.29506 53.7532 7.57462 53.5353C5.70175 52.9686 4.51764 51.126 4.78015 49.187C4.88118 48.4411 4.76885 47.6819 4.45617 46.9972C4.1435 46.3125 3.64327 45.7304 3.01342 45.3183C1.37614 44.247 0.758952 42.1454 1.55714 40.359C1.86421 39.6718 1.97033 38.9116 1.86321 38.1666C1.7561 37.4216 1.44014 36.7221 0.951912 36.1493C-0.317304 34.66 -0.317304 32.4696 0.951912 30.9805C1.44014 30.4077 1.7561 29.7082 1.86321 28.9632C1.97033 28.2182 1.86421 27.458 1.55714 26.7708C0.758952 24.9844 1.37599 22.8827 3.01342 21.8115C3.64327 21.3994 4.1435 20.8173 4.45617 20.1326C4.76885 19.4479 4.88118 18.6887 4.78015 17.9428C4.5175 16.0038 5.70175 14.1612 7.57462 13.5946C8.29507 13.3766 8.93903 12.959 9.43194 12.3902C9.92485 11.8213 10.2465 11.1245 10.3597 10.3803C10.6541 8.44597 12.3095 7.01159 14.266 6.99546C15.0187 6.98932 15.7542 6.77008 16.3874 6.36314C17.0206 5.95619 17.5256 5.37818 17.8438 4.69607C18.6713 2.923 20.6636 2.01306 22.5454 2.54889C23.2694 2.75502 24.0369 2.75188 24.7591 2.53982C25.4813 2.32776 26.1287 1.91546 26.6262 1.35066C27.9197 -0.117563 30.0877 -0.429178 31.7424 0.61511C32.3789 1.01685 33.1162 1.23007 33.8689 1.23007C34.6216 1.23007 35.3589 1.01685 35.9955 0.61511Z" fill="#34A853"/>
<mask id="mask0_471_37" style="mask-type:alpha" maskUnits="userSpaceOnUse" x="19" y="19" width="30" height="30">
<rect x="19" y="19" width="30" height="30" fill="#D9D9D9"/>
</mask>
<g mask="url(#mask0_471_37)">
<path d="M29.6875 44.0002H38.3125L39.5625 39.0002H28.4375L29.6875 44.0002ZM29.6875 46.5002C29.1042 46.5002 28.5938 46.3231 28.1563 45.9689C27.7188 45.6147 27.4271 45.1564 27.2812 44.5939L25.875 39.0002H42.125L40.7188 44.5939C40.5729 45.1564 40.2813 45.6147 39.8438 45.9689C39.4063 46.3231 38.8958 46.5002 38.3125 46.5002H29.6875ZM25.25 36.5002H42.75V34.0002H25.25V36.5002ZM34 29.0002C34 27.1252 34.6354 25.5002 35.9063 24.1252C37.1771 22.7502 38.7604 21.9168 40.6562 21.6252C40.7604 21.6043 40.8542 21.6147 40.9375 21.6564C41.0208 21.6981 41.1042 21.7502 41.1875 21.8127C41.2708 21.8752 41.3281 21.9533 41.3594 22.047C41.3906 22.1408 41.3958 22.2397 41.375 22.3439C41.1458 23.9897 40.474 25.422 39.3594 26.6408C38.2448 27.8595 36.875 28.6043 35.25 28.8752V31.5002H44C44.3542 31.5002 44.651 31.62 44.8906 31.8595C45.1302 32.0991 45.25 32.396 45.25 32.7502V36.5002C45.25 37.1877 45.0052 37.7762 44.5156 38.2658C44.026 38.7554 43.4375 39.0002 42.75 39.0002H25.25C24.5625 39.0002 23.974 38.7554 23.4844 38.2658C22.9948 37.7762 22.75 37.1877 22.75 36.5002V32.7502C22.75 32.396 22.8698 32.0991 23.1094 31.8595C23.349 31.62 23.6458 31.5002 24 31.5002H32.75V28.8752C31.125 28.6043 29.7552 27.8595 28.6406 26.6408C27.526 25.422 26.8542 23.9897 26.625 22.3439C26.6042 22.2397 26.6094 22.1408 26.6406 22.047C26.6719 21.9533 26.7292 21.8752 26.8125 21.8127C26.8958 21.7502 26.9792 21.6981 27.0625 21.6564C27.1458 21.6147 27.2396 21.6043 27.3437 21.6252C29.2396 21.9168 30.8229 22.7502 32.0937 24.1252C33.3646 25.5002 34 27.1252 34 29.0002Z" fill="white"/>
</g>
</svg>
