<?xml version="1.0" encoding="UTF-8"?>
<svg id="Layer_1" data-name="Layer 1" xmlns="http://www.w3.org/2000/svg" viewBox="0 0 1506.2 1055.41">
  <defs>
    <style>
      .cls-1 {
        fill: #fff;
      }

      .cls-2 {
        fill: #fb0;
      }

      .cls-3 {
        fill: #34a853;
      }
    </style>
  </defs>
  <g>
    <path class="cls-3" d="M120.74,380.1v133.69h28.64v-58.24l46.75-.06c30.38-.04,54.99-24.68,54.99-55.07v-75.39h-75.32c-30.41,0-55.07,24.65-55.07,55.07ZM188.6,426.91h-27.45l27.85-41.25-.24.19-39.38,31.99-.14.12v-30.4c0-18.79,15.23-34.02,34.02-34.02h39.36v39.36c0,18.79-15.23,34.02-34.02,34.02Z"/>
    <path class="cls-2" d="M0,324.76v54.53c0,26.22,21.26,47.48,47.48,47.48h37.98l-38.74-57.38-.23-.34.34.27,55.18,44.83v-41.92c0-26.22-21.26-47.48-47.48-47.48H0Z"/>
  </g>
  <g>
    <path class="cls-1" d="M352.02,349.77c-19.04,0-34.8,4.54-46.86,13.49-12.24,9.09-18.45,21.03-18.45,35.48,0,4.19.56,8.37,1.67,12.44l.85,3.12,15.92-14.04-.76-1.41c-2.02-3.76-3.04-8.14-3.04-13.02,0-11.42,10.21-19.37,30.35-23.67l-6.11,55.13-.84,7.4c-1.3,11.04-4.65,18.5-9.96,22.2l-8.46-.94-13.9,13.36,40.71,1.95,13.04-12.66-17.56-1c4.16-2.59,6.95-5.25,8.48-8.04,2.02-3.71,3.61-11.01,4.84-22.29,13.93-1.11,25.66-5.37,34.9-12.68,9.79-7.75,14.75-17.24,14.75-28.23,0-17.65-13.32-26.6-39.58-26.6ZM348.42,406.19c-1.55,0-3.32-.14-5.29-.43l5.06-45c18.53.43,27.54,7.59,27.54,21.86,0,15.86-8.93,23.56-27.31,23.56Z"/>
    <path class="cls-1" d="M459.91,384.62c-3.1-1.44-6.26-2.17-9.4-2.17-10.22,0-20.17,8.07-30.26,24.6l.32-2.92.53-5.33c.26-2.44.39-4.34.39-5.79,0-9.19-5.33-10.57-8.51-10.57-3.77,0-8.51,2.69-14.49,8.21-5.99,5.54-8.99,10.02-9.17,13.71-.09,1.72.8,3.29,2.63,4.68l2,1.52,1.05-2.27c4.54-9.82,8.12-11.89,10.42-11.89h0s.49.45.49,2.64c0,1.79-.18,4.17-.52,7.1l-.46,3.98-4,36.32-.61,4.99-.54,4.98-.54,5.4,15.53-5.22,2.21-19.91c.98-8.89,4.34-17.58,10-25.84,5.45-7.96,10.52-11.99,15.09-11.99,2.18,0,3.95.38,5.27,1.11l1.39.78,13.69-14.97-2.49-1.16Z"/>
    <path class="cls-1" d="M495.38,433.58l-1.9-1.13-.95,2c-4.96,10.47-8.73,12.96-11.09,13.12-.06-.2-.13-.59-.13-1.26,0-1.53.33-4.7.97-9.37l.77-4.91,3.13-21.83c.51-3.72,1.53-11.3,1.53-11.3.42-3.27.63-5.4.63-6.51,0-8.65-4.85-9.94-7.74-9.94-3.97,0-8.9,2.74-15.07,8.39-6.22,5.69-9.24,10.28-9.24,14.01,0,1.46.71,2.84,2.11,4.1l1.93,1.73,1.2-2.3c5.32-10.15,9.03-11.89,10.86-11.97.09.2.24.71.24,1.8s-.12,2.53-.36,4.21l-1.38,9.46-2.98,20.75c-1.56,10.92-2.31,17.29-2.31,19.5,0,8.19,4.75,9.41,7.59,9.41,5.78,0,11.71-3.84,18.12-11.73,6.29-7.67,7.1-10.5,7.1-12.12,0-2.29-2.28-3.65-3.04-4.1Z"/>
    <path class="cls-1" d="M499.71,345.88l-1.68,1.89c-3.44,3.87-7.92,6.96-13.31,9.17l-.78.32-9.04,22.28,5.23-3.22c14.93-9.18,22.19-17.36,22.19-25,0-1.18-.38-2.32-1.14-3.38l-1.47-2.06Z"/>
    <path class="cls-1" d="M601.39,349.77c-19.04,0-34.8,4.54-46.86,13.49-12.24,9.09-18.45,21.03-18.45,35.48,0,4.19.56,8.37,1.67,12.44l.85,3.12,15.92-14.04-.76-1.41c-2.02-3.76-3.04-8.14-3.04-13.02,0-11.42,10.21-19.37,30.35-23.67l-6.11,55.13-.84,7.4c-1.3,11.04-4.65,18.5-9.96,22.2l-8.46-.94-13.9,13.36,40.71,1.95,13.04-12.66-17.56-1c4.16-2.59,6.95-5.25,8.48-8.04,2.02-3.71,3.61-11.01,4.84-22.29,13.93-1.11,25.66-5.37,34.9-12.68,9.79-7.75,14.75-17.24,14.75-28.23,0-17.65-13.32-26.6-39.58-26.6ZM597.8,406.19c-1.55,0-3.32-.14-5.29-.43l5.06-45c18.53.43,27.54,7.59,27.54,21.86,0,15.86-8.93,23.56-27.31,23.56Z"/>
    <path class="cls-1" d="M709.29,384.62c-3.1-1.44-6.26-2.17-9.4-2.17-10.22,0-20.17,8.07-30.26,24.6l.32-2.92.53-5.33c.26-2.44.39-4.34.39-5.79,0-9.19-5.33-10.57-8.51-10.57-3.77,0-8.51,2.69-14.49,8.21-5.99,5.54-8.99,10.02-9.17,13.71-.09,1.72.8,3.29,2.63,4.68l2,1.52,1.05-2.27c4.54-9.82,8.12-11.89,10.42-11.89h0s.49.45.49,2.64c0,1.79-.18,4.17-.52,7.1l-.46,3.98-4,36.32-.61,4.99-.54,4.98-.54,5.4,15.53-5.22,2.21-19.91c.98-8.89,4.34-17.58,10-25.84,5.45-7.96,10.52-11.99,15.09-11.99,2.18,0,3.95.38,5.27,1.11l1.39.78,13.69-14.97-2.49-1.16Z"/>
    <path class="cls-1" d="M747.79,437.68c0-2.29-2.28-3.65-3.04-4.1l-1.9-1.13-.95,2c-4.96,10.47-8.73,12.96-11.09,13.12-.06-.2-.13-.59-.13-1.26,0-1.53.33-4.7.97-9.37l.77-4.91,3.13-21.83c.51-3.72,1.53-11.3,1.53-11.3.42-3.27.63-5.4.63-6.51,0-8.65-4.85-9.94-7.74-9.94-3.97,0-8.9,2.74-15.07,8.39-6.22,5.69-9.24,10.28-9.24,14.01,0,1.46.71,2.84,2.11,4.1l1.93,1.73,1.2-2.3c5.32-10.15,9.03-11.89,10.86-11.97.09.2.24.71.24,1.8s-.12,2.53-.36,4.21l-1.38,9.46-2.98,20.75c-1.56,10.92-2.31,17.29-2.31,19.5,0,8.19,4.75,9.41,7.59,9.41,5.78,0,11.71-3.84,18.12-11.73,6.29-7.67,7.1-10.5,7.1-12.12Z"/>
    <path class="cls-1" d="M751.68,351.32c0-1.18-.38-2.32-1.14-3.38l-1.47-2.06-1.68,1.89c-3.44,3.87-7.92,6.96-13.31,9.17l-.78.32-9.04,22.28,5.23-3.22c14.93-9.18,22.19-17.36,22.19-25Z"/>
    <path class="cls-1" d="M811.3,404.32c-1.67,8.81-5.52,17.94-11.45,27.11-7.44,11.52-11.73,13.24-13.62,13.24-.02,0-2.24-.78-2.87-13.36l-1.4-26.72c-.42-8.06-1.33-13.51-2.78-16.66-1.65-3.59-4.64-5.48-8.63-5.48-3.66,0-8.04,2.31-13.42,7.07-5.45,4.82-8.09,8.81-8.09,12.2,0,1.77.96,3.32,2.85,4.63l1.9,1.32,1.04-2.07c3.33-6.62,6.72-10.11,9.81-10.11.02,0,1.95.61,2.49,10.34l.23,6.19.99,21.59.54,10.6c.57,11.49,3.97,17.32,10.11,17.32,4.19,0,9.19-3.21,15.27-9.81,3.59-3.9,7.11-8.49,10.53-13.71l-4.99,25.79c-3.49,17.89-7.83,30.3-12.91,36.88-4.94,6.4-12.21,9.51-22.24,9.51-4.89,0-9.65-1.02-14.15-3.03l-1.33-.6-12.41,13.69,2.85,1.01c4.52,1.61,8.68,2.42,12.36,2.42,17.07,0,32.27-7.42,45.19-22.05,8.6-9.79,15.02-25.05,19.09-45.35l10.23-51.2c1.8-8.91,3.57-15.63,5.25-19.97l1.57-4.06-18.81,6.54-3.17,16.72Z"/>
    <path class="cls-1" d="M909.68,433.58l-1.91-1.14-.94,2.01c-4.9,10.46-8.65,12.95-11.01,13.11-.06-.2-.13-.59-.13-1.26,0-1.53.33-4.7.97-9.4l.69-4.87,4.89-33.77c.02-.14.13-.89.96-4.66l.91-4.01c.05-.19.95-3.42.95-3.42l-1.77-.63c-3.92-1.39-8.69-2.1-14.19-2.1-14.43,0-27.07,5.94-37.58,17.66-10.45,11.66-15.75,25.63-15.75,41.55s6.78,18.89,12.46,18.89,11.95-3.12,19.28-9.55c5.04-4.42,9.83-9.79,14.28-16.02l-.5,3.38-.77,6.09c-.37,2.81-.55,4.97-.55,6.6,0,8.26,4.75,9.5,7.59,9.5,5.78,0,11.71-3.84,18.13-11.74,6.22-7.67,7.02-10.46,7.02-12.03s-1.02-2.97-3.04-4.17ZM852.24,438.45c0-12.45,2.36-23,7-31.35,4.5-8.08,9.79-12,16.19-12,3.95,0,7.94,1,11.85,2.98l-1.01,6.84c-1.77,12.08-6.88,22.75-15.22,31.71-5.99,6.45-11.02,9.73-14.95,9.73-1.06,0-3.87,0-3.87-7.9Z"/>
    <path class="cls-1" d="M1096.53,328.52c3.19,0,6.99,1.27,11.3,3.77l1.33.78,14.64-14.52-2.94-1.11c-4.54-1.71-9.21-2.57-13.87-2.57-12.4,0-23.84,6.1-33.99,18.13-8.79,10.44-14.89,28.69-18.14,54.27l-4.37,35.8c-2.7-4.07-5.98-8.4-9.79-12.95l-5.04-6.04-5.7-6.71c-13.19-15.74-19.87-28.77-19.87-38.72,0-.47.05-1.47.29-3.59l.26-2.24h-3.1c-.31,0-1.17-.04-3.49-.22-1.77-.16-3.7-.24-5.75-.24-14.69,0-27.13,4.39-36.96,13.06-9.9,8.73-14.92,19.79-14.92,32.85,0,4.16.65,8.36,1.92,12.5l.96,3.13,15.83-15.24-.73-1.35c-2.22-4.11-3.35-8.23-3.35-12.25,0-12.77,9.72-18.98,29.72-18.98h1.33l-5.61,50.61-.69,6.62c-.84,7.29-1.96,12.54-3.34,15.58-1.25,2.75-3.52,5.39-6.77,7.84l-8.63-.78-13.87,13.33,38.74,1.96,12.84-12.52-16.21-1.47c3.47-2.96,5.9-5.68,7.36-8.26,1.96-3.45,3.32-8.61,4.18-15.78l3.95-35.65c3.9,7.15,9.39,15.02,16.39,23.51l5.89,7.11c7.78,9.32,13.02,16.46,15.59,21.2,2.55,4.71,5.01,11.75,7.3,20.91l1.34,5.36,12.26-25.12,8.05-65c2.25-17.67,5.4-30.18,9.35-37.17,3.76-6.63,9.07-9.86,16.26-9.86Z"/>
    <path class="cls-1" d="M1163.23,433.58l-1.91-1.13-.94,2c-4.89,10.39-8.68,12.92-11.08,13.11-.06-.21-.12-.6-.12-1.25,0-.98.15-2.75.44-5.23l.54-4.22c.15-1.31.36-2.93.61-4.83l4.6-31.86c.7-4.56,1.77-9.81,3.17-15.62l.86-3.56-17,5.77-2.83,19.32c-1.26,8.88-5.45,18.01-12.43,27.16-6.79,8.9-12.8,13.41-17.84,13.41-.74,0-1.87,0-1.87-3.26,0-3.74.2-7.47.6-11.08l2.38-21.85.67-6.39.69-5.89c.21-1.9.32-3.6.32-5.03,0-9.32-5.23-10.72-8.35-10.72-3.88,0-8.71,2.75-14.78,8.4-6.11,5.69-9.08,10.3-9.08,14.07,0,1.04.38,2.58,2.22,4.02l1.92,1.51,1.12-2.17c5.35-10.35,9.02-11.89,10.79-11.9,0,0,.43.44.43,2.42,0,1.1-.07,2.36-.22,3.78l-.46,4.98c-.2,2.53-.32,3.96-.37,4.36l-2.74,25c-.68,5.82-1.01,9.91-1.01,12.51,0,10.51,6,12.08,9.58,12.08,5.13,0,11.38-3.2,19.11-9.8,5.43-4.63,10.51-10.05,15.15-16.17-.15,1.04-1.39,9.87-1.39,9.87-.37,2.77-.55,4.93-.55,6.6,0,8.26,4.76,9.5,7.59,9.5,5.79,0,11.72-3.84,18.13-11.73,6.3-7.67,7.11-10.47,7.11-12.04s-1.03-2.98-3.05-4.18Z"/>
    <path class="cls-1" d="M1238.64,384.62c-3.1-1.44-6.27-2.17-9.4-2.17-10.22,0-20.17,8.07-30.26,24.6l.32-2.92.53-5.33c.27-2.44.39-4.34.39-5.79,0-9.19-5.33-10.57-8.51-10.57-3.77,0-8.51,2.69-14.49,8.21-5.99,5.54-8.99,10.02-9.17,13.71-.09,1.72.8,3.29,2.63,4.68l2,1.52,1.05-2.27c4.54-9.82,8.12-11.89,10.42-11.89h0s.49.45.49,2.64c0,1.79-.18,4.17-.52,7.1l-.46,3.98-4,36.32-.62,4.99-.54,4.98-.54,5.4,15.53-5.22,2.21-19.91c.98-8.89,4.34-17.58,10-25.84,5.45-7.96,10.52-11.99,15.09-11.99,2.18,0,3.95.38,5.27,1.11l1.39.78,13.7-14.97-2.49-1.16Z"/>
    <path class="cls-1" d="M1259.6,392.89c4.33,0,8.15,1.29,11.7,3.95l1.34,1.01,12.94-11.97-3.31-1.04c-5.01-1.58-9.71-2.38-13.97-2.38-7.91,0-14.69,2.17-20.14,6.46-5.6,4.4-8.44,9.95-8.44,16.47,0,4.71,3.31,10.46,10.14,17.59l4.36,4.5c7.89,8.22,9.55,12.71,9.55,15.02,0,5.95-2.78,8.6-9,8.6-5.49,0-9.92-1.87-13.53-5.7l-1.29-1.37-14.32,11.7,2.61,1.44c5.26,2.9,10.98,4.37,17.01,4.37,8.47,0,16.06-2.63,22.56-7.81,6.64-5.29,10-11.54,10-18.57,0-5.06-3.63-11.31-11.08-19.09l-4.75-5.05c-7.55-7.86-8.68-11.64-8.68-13.19,0-2.44.75-4.93,6.31-4.93Z"/>
    <path class="cls-1" d="M1337.94,394.46c0-7.75-4.02-12.02-11.33-12.02-9.24,0-18.56,6.27-27.7,18.65-9,12.18-13.56,24.44-13.56,36.43,0,6.86,1.85,12.6,5.49,17.08,3.74,4.6,8.58,6.93,14.39,6.93,9.07,0,18.27-5.32,27.34-15.83,3.71-4.35,5.37-7.25,5.37-9.4,0-1.29-.48-3.15-2.79-4.72l-1.9-1.3-1.03,2.06c-5.12,10.24-11.4,15.23-19.2,15.23-2.66,0-10.56,0-12.33-14.83,10.02-2.95,18.69-7.97,25.77-14.93,7.62-7.48,11.48-15.34,11.48-23.35ZM1318.15,415.35c-4.4,3.6-9.41,5.35-15.29,5.35-.56,0-1.17-.07-1.82-.21,1.02-6.83,3.11-12.59,6.19-17.15,3.17-4.67,6.51-6.94,10.21-6.94,4.96,0,7.07,2.07,7.07,6.92,0,4.6-2.08,8.53-6.36,12.03Z"/>
    <path class="cls-1" d="M1400.83,399.96l1.39.78,13.7-14.97-2.49-1.16c-3.1-1.44-6.27-2.17-9.4-2.17-10.22,0-20.17,8.07-30.26,24.6l.32-2.92.53-5.33c.27-2.44.39-4.34.39-5.79,0-9.19-5.33-10.57-8.51-10.57-3.77,0-8.51,2.69-14.49,8.21-5.99,5.54-8.99,10.02-9.17,13.71-.09,1.72.8,3.29,2.63,4.68l2,1.52,1.05-2.27c4.54-9.82,8.12-11.89,10.42-11.89h0s.49.45.49,2.64c0,1.79-.18,4.17-.52,7.1l-.46,3.98-4,36.32-.62,4.99-.54,4.98-.54,5.4,15.53-5.22,2.21-19.91c.98-8.89,4.34-17.58,10-25.84,5.45-7.96,10.52-11.99,15.09-11.99,2.18,0,3.95.38,5.27,1.11Z"/>
    <path class="cls-1" d="M1480.4,387.6l-3.17,16.72c-1.67,8.81-5.52,17.94-11.45,27.11-7.44,11.52-11.73,13.24-13.62,13.24-.02,0-2.24-.78-2.87-13.36l-1.4-26.72c-.42-8.06-1.34-13.51-2.78-16.66-1.65-3.59-4.64-5.48-8.63-5.48-3.65,0-8.05,2.31-13.42,7.07-5.45,4.82-8.09,8.81-8.09,12.2,0,1.77.96,3.32,2.85,4.63l1.9,1.32,1.04-2.07c3.33-6.62,6.72-10.11,9.81-10.11.02,0,1.95.61,2.49,10.34l.23,6.19.99,21.59.54,10.6c.57,11.49,3.97,17.32,10.11,17.32,4.19,0,9.19-3.21,15.27-9.81,3.59-3.9,7.11-8.49,10.53-13.71l-4.99,25.79c-3.49,17.89-7.83,30.3-12.91,36.88-4.94,6.4-12.21,9.51-22.24,9.51-4.89,0-9.65-1.02-14.15-3.03l-1.33-.6-12.41,13.69,2.85,1.01c4.52,1.61,8.68,2.42,12.36,2.42,17.07,0,32.27-7.42,45.19-22.05,8.6-9.79,15.02-25.05,19.09-45.35l10.23-51.2c1.8-8.91,3.57-15.63,5.25-19.97l1.57-4.06-18.81,6.54Z"/>
  </g>
</svg>