<svg width="512" height="59" viewBox="0 0 512 59" fill="none" xmlns="http://www.w3.org/2000/svg">
<path d="M37.2937 17.0885V58.3813H46.1363V40.3915L60.5777 40.3724C69.9599 40.3597 77.5646 32.7487 77.5646 23.3665V0.0825195H54.2997C44.9048 0.0825195 37.2937 7.69996 37.2937 17.0885ZM58.2544 31.5489H49.7736L58.375 18.8087L58.2988 18.8659L46.1363 28.7495L46.0919 28.7876V19.3991C46.0919 13.5971 50.7956 8.88701 56.6039 8.88701H68.7601V21.0432C68.7601 26.8451 64.0563 31.5553 58.248 31.5553L58.2544 31.5489Z" fill="#34A853"/>
<path d="M0 0V16.8472C0 24.9471 6.5637 31.5108 14.6636 31.5108H26.3944L14.4287 13.7876L14.3589 13.686L14.4604 13.7685L31.5045 27.6132V14.6636C31.5108 6.5637 24.9408 0 16.8472 0H0Z" fill="#FFBB00"/>
<path d="M105.133 20.9226C103.851 20.4084 102.372 19.8942 100.125 19.8942C96.2718 19.8942 94.1579 22.0144 94.1579 27.2768V47.171H91.7838C87.9307 47.171 85.4931 45.2476 85.4931 41.6547V25.7406C85.4931 18.8087 89.1495 12.2006 98.265 12.2006C103.591 12.2006 105.451 15.2158 105.451 17.8502V20.9289H105.127L105.133 20.9226Z" fill="white"/>
<path d="M114.827 10.0741C112.065 10.0741 109.818 7.76344 109.818 5.00212C109.818 2.2408 112.065 0 114.827 0C117.588 0 119.899 2.24715 119.899 5.00212C119.899 7.75709 117.588 10.0741 114.827 10.0741ZM120.921 47.4884C114.249 47.4884 110.586 43.7051 110.586 36.7097V13.2861H113.024C116.877 13.2861 119.188 15.3364 119.188 19.7038V35.8781C119.188 39.3441 120.66 40.4359 124.45 40.4359H126.056V42.2958C126.056 46.0157 124.577 47.4947 120.921 47.4947V47.4884Z" fill="white"/>
<path d="M158.475 31.5743C155.396 31.5743 152.888 31.0601 151.092 30.0952V47.1647H147.626C145.188 47.1647 142.3 45.5586 142.3 40.8739V4.93864C144.738 4.03724 150.578 2.88193 153.726 2.88193H158.671C167.209 2.88193 173.303 7.75709 173.303 16.5489C173.303 25.8549 166.885 31.5679 158.481 31.5679L158.475 31.5743ZM157.573 10.3343H154.748C153.656 10.3343 152.114 10.7215 151.092 10.912V23.3602C152.634 23.8108 155.072 24.1282 157.319 24.1282C161.813 24.1282 164.251 21.5637 164.251 17.3233C164.251 12.3212 162.194 10.328 157.579 10.328L157.573 10.3343Z" fill="white"/>
<path d="M196.657 20.9226C195.375 20.4084 193.896 19.8942 191.649 19.8942C187.795 19.8942 185.682 22.0144 185.682 27.2768V47.171H183.307C179.454 47.171 177.017 45.2476 177.017 41.6547V25.7406C177.017 18.8087 180.673 12.2006 189.789 12.2006C195.114 12.2006 196.974 15.2158 196.974 17.8502V20.9289H196.651L196.657 20.9226Z" fill="white"/>
<path d="M206.35 10.0741C203.589 10.0741 201.342 7.76344 201.342 5.00212C201.342 2.2408 203.589 0 206.35 0C209.111 0 211.422 2.24715 211.422 5.00212C211.422 7.75709 209.111 10.0741 206.35 10.0741ZM212.444 47.4884C205.773 47.4884 202.11 43.7051 202.11 36.7097V13.2861H204.547C208.401 13.2861 210.711 15.3364 210.711 19.7038V35.8781C210.711 39.3441 212.184 40.4359 215.974 40.4359H217.58V42.2958C217.58 46.0157 216.1 47.4947 212.444 47.4947V47.4884Z" fill="white"/>
<path d="M223.502 58.4004C220.296 58.4004 217.472 56.2802 217.472 53.0745V51.405L222.347 51.0813C225.489 50.8909 226.581 49.6086 228.441 44.7271C223.883 37.8587 217.338 20.6623 216.183 12.5116H220.741C223.115 12.5116 225.299 14.1177 225.749 16.5552C226.968 23.2268 229.533 30.419 232.681 36.5129C235.506 30.0318 238.648 19.5705 239.423 12.5116H243.142C245.904 12.5116 247.186 13.7304 247.186 16.5552C247.186 20.2116 241.155 35.9988 239.549 39.725C233.132 54.871 229.729 58.4004 223.508 58.4004H223.502Z" fill="white"/>
<path d="M264.966 47.7487H263.233C255.019 47.7487 249.37 43.1274 249.37 36.7732C249.37 30.419 253.864 25.9247 266.566 25.9247H269.581V25.474C269.581 20.5988 267.271 19.1198 262.135 19.1198C255.908 19.1198 252.442 21.4939 251.16 23.0999H250.836V20.3386C250.836 16.4854 254.302 11.8705 263.417 11.8705C271.117 11.8705 278.049 15.4634 278.049 27.4037V35.364C278.049 42.6831 272.66 47.7487 264.96 47.7487H264.966ZM269.651 32.0885H266.572C260.028 32.0885 258.168 33.631 258.168 36.4495C258.168 39.2679 260.351 40.747 264.135 40.747C267.918 40.747 269.651 38.9505 269.651 35.4211V32.0821V32.0885Z" fill="white"/>
<path d="M327.372 47.171C323.97 47.171 320.25 46.1427 314.791 35.5544L306.767 19.9577C305.548 17.5201 304.583 15.8506 303.815 14.8223V47.1647H300.349C297.785 47.1647 295.024 45.2413 295.024 41.3881V3.20567H299.385C305.161 3.20567 308.881 6.28439 311.833 12.1879L319.533 27.5878C320.434 29.3843 321.456 32.0186 322.097 33.4914V3.20567H326.014C328.261 3.20567 330.825 5.45282 330.825 8.27762V47.171H327.36H327.372Z" fill="white"/>
<path d="M351.145 47.9391C342.607 47.9391 335.872 42.2895 335.872 32.2154V12.5116H337.478C342.423 12.5116 344.6 14.6318 344.6 18.6754V31.3839C344.6 37.7381 347.679 40.3026 351.596 40.3026C355.125 40.3026 357.626 37.865 357.626 31.9615V12.5116H359.169C364.177 12.5116 366.291 14.6318 366.291 18.6754V31.6378C366.291 42.4164 361.219 47.9391 351.145 47.9391Z" fill="white"/>
<path d="M390.959 20.9226C389.677 20.4084 388.198 19.8942 385.95 19.8942C382.097 19.8942 379.983 22.0144 379.983 27.2768V47.171H377.609C373.756 47.171 371.319 45.2476 371.319 41.6547V25.7406C371.319 18.8087 374.975 12.2006 384.09 12.2006C389.416 12.2006 391.276 15.2158 391.276 17.8502V20.9289H390.952L390.959 20.9226Z" fill="white"/>
<path d="M405.781 47.9391C399.427 47.9391 394.679 44.6636 394.679 41.1342V37.2176H395.002C396.862 38.9505 401.293 40.4931 405.4 40.4931C409.507 40.4931 411.691 39.2743 411.691 36.7034C411.691 34.7165 410.472 33.7516 404.505 32.9201C397.186 31.8917 393.657 29.0034 393.657 23.741C393.657 17.2599 399.497 11.7372 408.352 11.7372C416.179 11.7372 419.391 15.7808 419.391 19.1198V22.3953H419.067C417.271 20.5988 413.291 19.1896 409.184 19.1896C403.921 19.1896 402.252 20.7956 402.252 23.0428C402.252 24.7757 403.28 25.4803 409.184 26.4452C416.369 27.6005 420.223 30.7427 420.223 36.2654C420.223 43.5845 415.087 47.9455 405.781 47.9455V47.9391Z" fill="white"/>
<path d="M438.454 33.5612H432.804C433.445 37.9285 437.425 40.6835 442.497 40.6835C446.09 40.6835 450.324 39.9789 453.085 37.408H453.409V40.1058C453.409 44.5366 450.394 47.9328 440.898 47.9328C432.296 47.9328 423.892 41.1278 423.892 30.5396C423.892 18.9865 430.95 11.7372 440.834 11.7372C448.02 11.7372 454.698 16.8726 454.698 25.1503C454.698 31.5045 449.886 33.5548 438.46 33.5548L438.454 33.5612ZM440.06 18.9293C435.889 18.9293 433.001 22.3318 432.81 26.3119L432.747 27.4672H436.6C444.751 27.4672 446.611 26.5658 446.611 24.1283C446.611 20.6623 444.046 18.9293 440.066 18.9293H440.06Z" fill="white"/>
<path d="M478.261 20.9226C476.979 20.4084 475.5 19.8942 473.253 19.8942C469.399 19.8942 467.286 22.0144 467.286 27.2768V47.171H464.911C461.058 47.171 458.621 45.2476 458.621 41.6547V25.7406C458.621 18.8087 462.277 12.2006 471.393 12.2006C476.718 12.2006 478.578 15.2158 478.578 17.8502V20.9289H478.255L478.261 20.9226Z" fill="white"/>
<path d="M488.316 58.4004C485.11 58.4004 482.286 56.2802 482.286 53.0745V51.405L487.161 51.0813C490.303 50.8909 491.395 49.6086 493.255 44.7271C488.697 37.8587 482.152 20.6623 480.997 12.5116H485.555C487.929 12.5116 490.113 14.1177 490.563 16.5552C491.782 23.2268 494.347 30.419 497.495 36.5129C500.32 30.0318 503.462 19.5705 504.237 12.5116H507.956C510.718 12.5116 512 13.7304 512 16.5552C512 20.2116 505.97 35.9988 504.364 39.725C497.946 54.871 494.543 58.4004 488.322 58.4004H488.316Z" fill="white"/>
</svg>
