<svg width="133" height="99" viewBox="0 0 133 99" fill="none" xmlns="http://www.w3.org/2000/svg">
<path d="M64.5777 22.0675V75.3868H75.9993V52.1596L94.6458 52.1344C106.764 52.1176 116.578 42.2901 116.578 30.1724V0.105469H86.5397C74.41 0.105469 64.5777 9.93771 64.5777 22.0675ZM91.6413 40.7393H80.6927L91.7998 24.2858L91.7049 24.3626L75.9981 37.1213L75.9428 37.1669V25.0408C75.9428 17.5469 82.0179 11.4706 89.5131 11.4706H105.21V27.169C105.21 34.663 99.1352 40.7393 91.6401 40.7393H91.6413Z" fill="#222222" fill-opacity="0.1"/>
<path d="M16.4235 0V21.7495C16.4235 32.2072 24.9005 40.6842 35.3582 40.6842H50.5069L35.0581 17.8003L34.9657 17.6659L35.1001 17.7727L57.1077 35.6522V18.9347C57.1077 8.47703 48.6307 0 38.1731 0H16.4235Z" fill="#222222" fill-opacity="0.1"/>
<path d="M15.7958 88.1334C15.4261 87.9857 15.0011 87.8369 14.3541 87.8369C13.245 87.8369 12.6352 88.4467 12.6352 89.9628V95.6933H11.951C10.8419 95.6933 10.1396 95.1388 10.1396 94.1028V89.5174C10.1396 87.5212 11.1936 85.6162 13.8188 85.6162C15.3528 85.6162 15.8894 86.4853 15.8894 87.2439V88.131H15.797L15.7958 88.1334Z" fill="#222222" fill-opacity="0.1"/>
<path d="M18.5865 85.0089C17.7919 85.0089 17.1449 84.3439 17.1449 83.5481C17.1449 82.7522 17.7919 82.1064 18.5865 82.1064C19.3811 82.1064 20.0474 82.7534 20.0474 83.5481C20.0474 84.3427 19.3823 85.0089 18.5865 85.0089ZM20.3426 95.7871C18.4196 95.7871 17.3657 94.6959 17.3657 92.6817V85.9344H18.0679C19.1771 85.9344 19.8433 86.5262 19.8433 87.783V92.4416C19.8433 93.4404 20.2682 93.7549 21.3594 93.7549H21.8215V94.2914C21.8215 95.3634 21.3966 95.7883 20.3426 95.7883V95.7871Z" fill="#222222" fill-opacity="0.1"/>
<path d="M31.1616 91.2018C30.2745 91.2018 29.5531 91.0542 29.0357 90.7769V95.6948H28.037C27.3348 95.6948 26.503 95.2327 26.503 93.8835V83.5303C27.2052 83.271 28.8881 82.9385 29.7932 82.9385H31.2168C33.6752 82.9385 35.4325 84.3441 35.4325 86.8769C35.4325 89.5573 33.584 91.203 31.1616 91.203V91.2018ZM30.9023 85.0823H30.0885C29.774 85.0823 29.3298 85.1928 29.0345 85.2492V88.8359C29.4787 88.9655 30.1809 89.058 30.8279 89.058C32.1219 89.058 32.8241 88.3185 32.8241 87.0978C32.8241 85.6561 32.2323 85.0823 30.9011 85.0823H30.9023Z" fill="#222222" fill-opacity="0.1"/>
<path d="M4.65864 91.2018C3.77157 91.2018 3.05015 91.0542 2.53278 90.7769V95.6948H1.53408C0.831858 95.6948 0 95.2327 0 93.8835V83.5303C0.702218 83.271 2.38514 82.9385 3.29022 82.9385H4.71386C7.17222 82.9385 8.92957 84.3441 8.92957 86.8769C8.92957 89.5573 7.08099 91.203 4.65864 91.203V91.2018ZM4.39936 85.0823H3.58551C3.27101 85.0823 2.82688 85.1928 2.53158 85.2492V88.8359C2.97572 88.9655 3.67794 89.058 4.32494 89.058C5.61894 89.058 6.32116 88.3185 6.32116 87.0978C6.32116 85.6561 5.72938 85.0823 4.39816 85.0823H4.39936Z" fill="#222222" fill-opacity="0.1"/>
<path d="M42.1607 88.1334C41.791 87.9857 41.3661 87.8369 40.7191 87.8369C39.6099 87.8369 39.0001 88.4467 39.0001 89.9628V95.6933H38.3159C37.2068 95.6933 36.5045 95.1388 36.5045 94.1028V89.5174C36.5045 87.5212 37.5585 85.6162 40.1837 85.6162C41.7178 85.6162 42.2543 86.4853 42.2543 87.2439V88.131H42.1619L42.1607 88.1334Z" fill="#222222" fill-opacity="0.1"/>
<path d="M44.9527 85.0089C44.1581 85.0089 43.5111 84.3439 43.5111 83.5481C43.5111 82.7522 44.1581 82.1064 44.9527 82.1064C45.7474 82.1064 46.4136 82.7534 46.4136 83.5481C46.4136 84.3427 45.7486 85.0089 44.9527 85.0089ZM46.7089 95.7871C44.7859 95.7871 43.732 94.6959 43.732 92.6817V85.9344H44.4342C45.5433 85.9344 46.2095 86.5262 46.2095 87.783V92.4416C46.2095 93.4404 46.6345 93.7549 47.7256 93.7549H48.1877V94.2914C48.1877 95.3634 47.7628 95.7883 46.7089 95.7883V95.7871Z" fill="#222222" fill-opacity="0.1"/>
<path d="M49.8947 98.9294C48.9704 98.9294 48.1565 98.3196 48.1565 97.3954V96.9152L49.5622 96.8228C50.4685 96.7676 50.7818 96.3978 51.3183 94.9922C50.0051 93.014 48.1193 88.0589 47.7868 85.7109H49.1C49.7843 85.7109 50.4132 86.1731 50.5417 86.8753C50.8934 88.7983 51.6328 90.8689 52.5379 92.6251C53.3518 90.7573 54.2568 87.7444 54.4789 85.7109H55.5508C56.3455 85.7109 56.7152 86.0626 56.7152 86.8753C56.7152 87.9292 54.9771 92.4774 54.5149 93.5494C52.6663 97.9127 51.6868 98.9294 49.8935 98.9294H49.8947Z" fill="#222222" fill-opacity="0.1"/>
<path d="M61.8383 95.8616H61.339C58.973 95.8616 57.3453 94.5304 57.3453 92.6998C57.3453 90.8692 58.6393 89.5752 62.3005 89.5752H63.1695V89.4456C63.1695 88.0411 62.5045 87.615 61.0257 87.615C59.2323 87.615 58.2336 88.2992 57.8639 88.7614H57.7715V87.9667C57.7715 86.8576 58.7702 85.5264 61.3954 85.5264C63.6137 85.5264 65.6111 86.5611 65.6111 90.0002V92.2929C65.6111 94.4007 64.0578 95.8616 61.8395 95.8616H61.8383ZM63.1875 91.3506H62.3005C60.4147 91.3506 59.8781 91.7947 59.8781 92.6074C59.8781 93.42 60.5071 93.8461 61.597 93.8461C62.687 93.8461 63.1875 93.3288 63.1875 92.3121V91.3506Z" fill="#222222" fill-opacity="0.1"/>
<path d="M79.8163 95.6944C78.8368 95.6944 77.7637 95.3991 76.1924 92.3478L73.8817 87.8548C73.53 87.1526 73.2527 86.6712 73.0318 86.3759V95.6932H72.0331C71.2937 95.6932 70.4991 95.1387 70.4991 94.0295V83.0293H71.7558C73.4196 83.0293 74.4915 83.9164 75.3426 85.6173L77.5608 90.0539C77.8201 90.5712 78.1154 91.3299 78.3003 91.7548V83.0293H79.4274C80.0744 83.0293 80.8138 83.6763 80.8138 84.4901V95.6932H79.8151L79.8163 95.6944Z" fill="#222222" fill-opacity="0.1"/>
<path d="M86.6633 95.9168C84.2049 95.9168 82.2627 94.2903 82.2627 91.3878V85.7124H82.7249C84.1485 85.7124 84.7775 86.3222 84.7775 87.4878V91.1489C84.7775 92.9795 85.6646 93.7189 86.7929 93.7189C87.8097 93.7189 88.5311 93.0167 88.5311 91.3157V85.7136H88.9752C90.4169 85.7136 91.0279 86.3234 91.0279 87.489V91.2233C91.0279 94.3287 89.567 95.9192 86.6645 95.9192L86.6633 95.9168Z" fill="#222222" fill-opacity="0.1"/>
<path d="M98.1328 88.1334C97.7631 87.9857 97.3381 87.8369 96.6911 87.8369C95.582 87.8369 94.9722 88.4467 94.9722 89.9628V95.6933H94.288C93.1788 95.6933 92.4766 95.1388 92.4766 94.1028V89.5174C92.4766 87.5212 93.5305 85.6162 96.1558 85.6162C97.6898 85.6162 98.2264 86.4853 98.2264 87.2439V88.131H98.134L98.1328 88.1334Z" fill="#222222" fill-opacity="0.1"/>
<path d="M102.404 95.9164C100.573 95.9164 99.2047 94.9741 99.2047 93.9574V92.829H99.2972C99.8337 93.3284 101.109 93.7725 102.292 93.7725C103.476 93.7725 104.103 93.4208 104.103 92.6814C104.103 92.1088 103.752 91.8315 102.033 91.5903C99.925 91.2938 98.9082 90.4619 98.9082 88.9458C98.9082 87.0781 100.591 85.4888 103.142 85.4888C105.397 85.4888 106.322 86.6531 106.322 87.6146V88.5569H106.229C105.712 88.0396 104.566 87.6326 103.382 87.6326C101.866 87.6326 101.386 88.0948 101.386 88.7418C101.386 89.2411 101.681 89.444 103.382 89.7213C105.453 90.0538 106.562 90.9601 106.562 92.5494C106.562 94.6572 105.083 95.914 102.403 95.914L102.404 95.9164Z" fill="#222222" fill-opacity="0.1"/>
<path d="M111.815 91.7751H110.188C110.373 93.0319 111.519 93.8277 112.98 93.8277C114.016 93.8277 115.236 93.6237 116.03 92.8843H116.123V93.6609C116.123 94.9369 115.254 95.9164 112.518 95.9164C110.04 95.9164 107.618 93.9574 107.618 90.906C107.618 87.5786 109.652 85.4888 112.499 85.4888C114.569 85.4888 116.492 86.9676 116.492 89.3528C116.492 91.1833 115.106 91.7739 111.815 91.7739V91.7751ZM112.277 87.5594C111.075 87.5594 110.243 88.5389 110.188 89.6853L110.17 90.0178H111.279C113.627 90.0178 114.164 89.7585 114.164 89.0563C114.164 88.0576 113.424 87.5582 112.278 87.5582L112.277 87.5594Z" fill="#222222" fill-opacity="0.1"/>
<path d="M123.283 88.1334C122.913 87.9857 122.488 87.8369 121.841 87.8369C120.732 87.8369 120.122 88.4467 120.122 89.9628V95.6933H119.438C118.329 95.6933 117.627 95.1388 117.627 94.1028V89.5174C117.627 87.5212 118.681 85.6162 121.306 85.6162C122.84 85.6162 123.377 86.4853 123.377 87.2439V88.131H123.284L123.283 88.1334Z" fill="#222222" fill-opacity="0.1"/>
<path d="M126.18 98.9294C125.255 98.9294 124.441 98.3196 124.441 97.3954V96.9152L125.847 96.8228C126.753 96.7676 127.067 96.3978 127.603 94.9922C126.29 93.014 124.404 88.0589 124.072 85.7109H125.385C126.069 85.7109 126.698 86.1731 126.827 86.8753C127.178 88.7983 127.918 90.8689 128.823 92.6251C129.637 90.7573 130.542 87.7444 130.764 85.7109H131.836C132.63 85.7109 133 86.0626 133 86.8753C133 87.9292 131.262 92.4774 130.8 93.5494C128.951 97.9127 127.972 98.9294 126.178 98.9294H126.18Z" fill="#222222" fill-opacity="0.1"/>
</svg>
