<svg width="68" height="68" viewBox="0 0 68 68" fill="none" xmlns="http://www.w3.org/2000/svg">
<path d="M35.9955 0.61511C37.6502 -0.429178 39.8182 -0.117563 41.1116 1.35066C41.6092 1.91547 42.2566 2.32778 42.9788 2.53984C43.701 2.7519 44.4685 2.75504 45.1925 2.54889C47.0743 2.01306 49.0668 2.923 49.8941 4.69607C50.2123 5.37816 50.7173 5.95615 51.3505 6.36309C51.9837 6.77004 52.7192 6.98929 53.4719 6.99546C55.4284 7.01145 57.0838 8.44583 57.3782 10.3803C57.4914 11.1245 57.8131 11.8213 58.306 12.3901C58.7989 12.959 59.4428 13.3766 60.1633 13.5946C62.0361 14.1612 63.2203 16.0038 62.9577 17.9428C62.8567 18.6887 62.969 19.4479 63.2817 20.1326C63.5944 20.8173 64.0946 21.3994 64.7245 21.8115C66.3618 22.8828 66.9789 24.9844 66.1807 26.7708C65.8737 27.458 65.7676 28.2182 65.8747 28.9632C65.9818 29.7082 66.2978 30.4077 66.786 30.9805C68.0552 32.4698 68.0552 34.66 66.786 36.1493C66.2978 36.7221 65.9818 37.4216 65.8747 38.1666C65.7676 38.9116 65.8737 39.6718 66.1807 40.359C66.9789 42.1454 66.3619 44.2471 64.7245 45.3183C64.0946 45.7304 63.5944 46.3125 63.2817 46.9972C62.969 47.6819 62.8567 48.4411 62.9577 49.187C63.2204 51.126 62.0361 52.9686 60.1633 53.5353C59.4428 53.7532 58.7989 54.1708 58.306 54.7396C57.813 55.3085 57.4914 56.0053 57.3782 56.7495C57.0838 58.6838 55.4284 60.1182 53.4719 60.1343C52.7192 60.1405 51.9837 60.3597 51.3505 60.7667C50.7173 61.1736 50.2123 61.7516 49.8941 62.4337C49.0666 64.2068 47.0743 65.1167 45.1925 64.5809C44.4685 64.3748 43.701 64.378 42.9788 64.59C42.2566 64.8021 41.6092 65.2144 41.1116 65.7791C39.8182 67.2474 37.6502 67.5591 35.9955 66.5147C35.3589 66.113 34.6216 65.8997 33.8689 65.8997C33.1162 65.8997 32.3789 66.113 31.7424 66.5147C30.0877 67.559 27.9197 67.2472 26.6262 65.7791C26.1287 65.2143 25.4813 64.802 24.7591 64.59C24.0369 64.3779 23.2694 64.3748 22.5454 64.5809C20.6636 65.1167 18.6711 64.2068 17.8438 62.4337C17.5256 61.7516 17.0206 61.1737 16.3874 60.7667C15.7542 60.3598 15.0187 60.1405 14.266 60.1343C12.3095 60.1184 10.6541 58.684 10.3597 56.7495C10.2465 56.0053 9.92483 55.3085 9.43192 54.7397C8.93902 54.1708 8.29506 53.7532 7.57462 53.5353C5.70175 52.9686 4.51764 51.126 4.78015 49.187C4.88118 48.4411 4.76885 47.6819 4.45617 46.9972C4.1435 46.3125 3.64327 45.7304 3.01342 45.3183C1.37614 44.247 0.758952 42.1454 1.55714 40.359C1.86421 39.6718 1.97033 38.9116 1.86321 38.1666C1.7561 37.4216 1.44014 36.7221 0.951912 36.1493C-0.317304 34.66 -0.317304 32.4696 0.951912 30.9805C1.44014 30.4077 1.7561 29.7082 1.86321 28.9632C1.97033 28.2182 1.86421 27.458 1.55714 26.7708C0.758952 24.9844 1.37599 22.8827 3.01342 21.8115C3.64327 21.3994 4.1435 20.8173 4.45617 20.1326C4.76885 19.4479 4.88118 18.6887 4.78015 17.9428C4.5175 16.0038 5.70175 14.1612 7.57462 13.5946C8.29507 13.3766 8.93903 12.959 9.43194 12.3902C9.92485 11.8213 10.2465 11.1245 10.3597 10.3803C10.6541 8.44597 12.3095 7.01159 14.266 6.99546C15.0187 6.98932 15.7542 6.77008 16.3874 6.36314C17.0206 5.95619 17.5256 5.37818 17.8438 4.69607C18.6713 2.923 20.6636 2.01306 22.5454 2.54889C23.2694 2.75502 24.0369 2.75188 24.7591 2.53982C25.4813 2.32776 26.1287 1.91546 26.6262 1.35066C27.9197 -0.117563 30.0877 -0.429178 31.7424 0.61511C32.3789 1.01685 33.1162 1.23007 33.8689 1.23007C34.6216 1.23007 35.3589 1.01685 35.9955 0.61511Z" fill="#34A853"/>
<path d="M39.5791 45.9306C39.6469 44.7116 39.8982 43.5104 40.3245 42.3674L40.074 41.8655L38.6488 40.3046C38.5821 40.2917 38.515 40.2848 38.4472 40.2841C38.4342 40.2841 38.4217 40.2848 38.4084 40.2852L38.384 40.2881C38.08 40.323 37.7742 40.34 37.4681 40.3389C37.4566 40.3389 37.4437 40.3378 37.4322 40.3378C37.2757 41.3914 37.0575 42.4345 36.7797 43.4617C36.5447 44.6457 36.5407 45.8639 36.7675 47.0494V47.6666C36.7675 47.8507 36.9161 47.9999 37.0995 47.9999H40.2883C40.4537 47.9999 40.5933 47.8781 40.6167 47.7138C40.7541 46.7575 39.9692 46.163 39.5802 45.9306H39.5791ZM30.6028 47.5437C30.5777 47.4807 30.0003 46.0459 28.7043 45.7739L27.3753 43.5677C28.6839 42.2172 29.3151 40.3454 29.093 38.4746C28.6139 38.3053 28.1968 38.1507 27.8706 38.026L27.2465 37.7886L26.0474 38.3298C25.7736 38.4544 25.5382 38.6501 25.3648 38.8965C25.3103 38.9747 25.2568 39.0536 25.2048 39.1336C24.9424 39.6157 24.6427 40.0766 24.3075 40.5111C24.5146 40.9384 24.5853 41.4195 24.5107 41.8889L24.0484 43.0585C23.9702 43.2571 23.9892 43.4808 24.0994 43.6631L26.3141 47.2937C26.3345 47.3275 26.3611 47.3578 26.3923 47.3823L27.0886 47.9293C27.1471 47.9754 27.2192 48.0002 27.2928 48.0002H30.2942C30.3358 48.0002 30.3771 47.9927 30.4159 47.9768C30.5871 47.9094 30.6707 47.7159 30.6032 47.5441L30.6028 47.5437Z" fill="white"/>
<path d="M25.6036 32.1011L25.3595 33.61H25.848L25.6039 32.1011H25.6036ZM25.6036 32.1011L25.3595 33.61H25.848L25.6039 32.1011H25.6036ZM25.6036 32.1011L25.3595 33.61H25.848L25.6039 32.1011H25.6036ZM25.6036 32.1011L25.3595 33.61H25.848L25.6039 32.1011H25.6036ZM25.6036 32.1011L25.3595 33.61H25.848L25.6039 32.1011H25.6036ZM25.6036 32.1011L25.3595 33.61H25.848L25.6039 32.1011H25.6036ZM25.6036 32.1011L25.3595 33.61H25.848L25.6039 32.1011H25.6036ZM25.6036 32.1011L25.3595 33.61H25.848L25.6039 32.1011H25.6036ZM25.6036 32.1011L25.3595 33.61H25.848L25.6039 32.1011H25.6036ZM25.6036 32.1011L25.3595 33.61H25.848L25.6039 32.1011H25.6036ZM25.6036 32.1011L25.3595 33.61H25.848L25.6039 32.1011H25.6036ZM39.0455 31.7595H38.6748V34.2438H39.0322C39.2329 34.2438 39.3373 34.135 39.3373 33.9596V32.0387C39.3373 31.8593 39.2242 31.7591 39.0455 31.7591V31.7595ZM39.0455 31.7595H38.6748V34.2438H39.0322C39.2329 34.2438 39.3373 34.135 39.3373 33.9596V32.0387C39.3373 31.8593 39.2242 31.7591 39.0455 31.7591V31.7595ZM25.6036 32.1011L25.3595 33.61H25.848L25.6039 32.1011H25.6036ZM53.6517 26.0366L51.779 24.3064C51.6089 24.1446 51.4987 23.9295 51.4668 23.6967C51.3164 22.6698 50.8362 21.7208 50.099 20.9933C49.9558 20.2669 49.5532 19.6187 48.9667 19.1697C48.3354 18.7165 47.6356 18.6999 46.9544 18.683C46.6533 18.684 46.3529 18.6613 46.0547 18.6167C45.5494 18.5205 45.0667 18.3284 44.6342 18.0499C44.5201 17.9789 44.3743 17.984 44.2652 18.0632C44.1543 18.14 44.1027 18.278 44.136 18.4098C44.2516 18.8174 44.4375 19.2015 44.6873 19.543C44.4748 19.5834 44.262 19.6299 44.0531 19.6864C42.4331 18.8736 41.0349 19.3301 40.4072 20.1134C40.3476 20.1898 40.2848 20.2665 40.2248 20.3465C39.853 20.8236 39.5304 21.2369 38.9863 21.4433C38.7692 21.5266 38.5366 21.5597 38.3051 21.5399C38.1838 21.5294 38.0668 21.5864 37.9994 21.6883C37.8978 21.8415 37.9398 22.0483 38.0927 22.1503C38.4652 22.3895 38.855 22.601 39.258 22.7833C39.244 22.7873 39.2307 22.7931 39.2178 22.8003C37.9531 23.407 36.9532 24.4577 36.4055 25.7534C35.883 26.9309 34.8066 27.7668 33.5405 27.9798C31.4489 28.4032 27.8197 28.0565 25.871 27.8666C25.5716 27.84 25.3093 27.813 25.0972 27.7967C23.643 27.6699 21.8133 27.7002 20.5615 29.033C20.203 29.3342 19.8828 29.679 19.609 30.0599C19.1317 30.8187 18.7602 31.6391 18.5068 32.4999C18.3572 32.9961 18.2545 33.4998 18.1548 33.9898C17.8953 35.27 17.6502 36.4832 16.571 37.3332C15.579 38.056 14.2809 38.2015 13.1543 37.7165C12.3705 37.3735 11.7331 36.4266 12.1717 35.5799C12.2553 35.4203 12.3655 35.2758 12.4972 35.1536C12.5934 35.0556 12.7061 34.976 12.8292 34.9165C13.2387 35.5078 13.9184 35.8508 14.6355 35.8267C15.233 35.8267 15.7976 35.5165 16.3851 35.4365C16.4461 35.4289 16.5035 35.4037 16.5516 35.3655C16.6937 35.2495 16.7163 35.0398 16.6008 34.8967C15.6766 33.7581 14.0659 33.4612 12.7994 34.1966C12.7786 34.2096 12.7592 34.2251 12.7427 34.2431C12.4746 34.3224 12.2323 34.4701 12.0389 34.673C11.8537 34.8466 11.6994 35.0491 11.5806 35.2733C10.9698 36.4594 11.7597 37.8329 12.8888 38.3298C14.2396 38.9168 15.8001 38.737 16.9823 37.8563C18.2545 36.8536 18.5327 35.4667 18.8054 34.1231C18.9016 33.6497 19.001 33.16 19.1442 32.6934C19.1737 32.5864 19.2139 32.4833 19.2505 32.3767C19.2315 32.6404 19.2253 32.9056 19.2336 33.1697C19.2451 33.5365 19.2777 33.903 19.3298 34.2665C19.5921 36.1798 19.7382 38.9531 17.9452 40.9068C17.5468 41.3507 17.3297 41.929 17.3379 42.5264V46.3799C17.3387 46.6159 17.4 46.8483 17.517 47.053L17.9319 47.7693C17.9915 47.8731 18.102 47.9365 18.2208 47.9365H20.887C21.0421 47.9347 21.1749 47.8277 21.2097 47.6763C21.345 46.9226 20.9405 46.1756 20.2367 45.8798V43.5363C20.2389 43.4192 20.2999 43.3115 20.3993 43.2499C21.3687 42.6402 23.5005 40.9233 24.6328 38.7935C24.6328 38.7935 24.706 38.68 24.8183 38.5168C25.0595 38.1716 25.3886 37.8978 25.7715 37.723L29.0787 36.2299C29.2417 36.1618 29.4301 36.2335 29.5069 36.3942C29.5862 36.5607 29.5166 36.7606 29.3508 36.8403L28.1054 37.4034C29.9315 38.0999 35.251 39.9905 38.3051 39.6269C38.5424 39.6035 38.7807 39.6323 39.006 39.7102L40.6261 41.4836L42.6517 45.5433C42.6818 46.0906 42.8264 46.626 43.0762 47.1135C43.1243 47.6151 43.5439 47.9988 44.0456 47.9999H47.1701C47.3313 47.9999 47.4687 47.8828 47.4956 47.7232C47.6747 46.6902 46.5227 45.9101 46.0913 45.6568C46.0235 45.3988 45.8813 45.1671 45.6829 44.9898L43.8069 39.1362C43.7176 38.8681 43.6978 38.5813 43.7506 38.3028L44.2918 35.2996C44.3237 35.1183 44.4967 34.998 44.6769 35.03C44.8574 35.0621 44.978 35.2351 44.9461 35.4167L44.7928 36.2634C45.0505 36.1726 45.2823 36.0216 45.4704 35.8231C45.844 36.2011 46.1735 36.6205 46.4531 37.073C46.5356 37.2103 46.696 37.2791 46.8514 37.2431C47.1834 37.1498 47.4953 36.0732 47.6611 35.0899C48.3322 36.3066 48.4413 36.2966 48.6373 36.276C48.7758 36.2616 48.8932 36.1661 48.9359 36.0332C49.2879 34.8964 49.2183 33.6594 49.1017 32.5994C48.9926 31.6164 48.9858 30.6594 49.6063 30.226C49.9103 30.5387 50.318 30.7286 50.7519 30.7596C51.1395 30.7513 51.5012 30.5629 51.7316 30.2494C51.7582 30.2163 51.7787 30.1773 51.7912 30.1363L52.05 29.2895L52.4753 28.9227C52.4997 28.9029 52.5212 28.8791 52.5381 28.8528L53.295 27.6861C53.3118 27.6595 53.4145 27.3593 53.4145 27.3593L53.7371 26.919C53.9403 26.6466 53.9026 26.264 53.6506 26.0362L53.6517 26.0366ZM24.4271 34.6733H23.948V33.0242C23.948 32.9053 23.9753 32.6898 23.9782 32.6635L23.5471 34.3671H23.2941L22.8631 32.6606C22.8631 32.6606 22.8932 32.897 22.8932 33.0242V34.6733H22.4141V31.3311H22.8846L23.4079 33.1773C23.4165 33.2076 23.4208 33.3297 23.4208 33.3297C23.4208 33.3297 23.4255 33.2076 23.4341 33.1773L23.9566 31.3311H24.4271V34.6733ZM26.5105 34.6733H26.0181L25.9176 34.0385H25.2946L25.1941 34.6733H24.7017V34.6647L25.3466 31.3264H25.8692L26.5101 34.6647V34.6733H26.5105ZM28.4665 34.6733H27.9177L27.2853 33.1813V34.6733H26.7886V31.3311H27.2853V32.7439L27.8388 31.3311H28.3836V31.3527L27.7085 32.9409L28.4668 34.6514V34.6733H28.4665ZM30.0395 34.6733H28.6578V31.3311H30.0262V31.7724H29.1548V32.7478H29.9042V33.1813H29.1548V34.2312H30.0395V34.6733ZM31.7823 34.6733H31.2852V31.3311H31.7823V34.6733ZM33.8782 34.6733H33.4421L32.6458 32.5702C32.6486 32.5871 32.6752 32.7269 32.6752 32.8094V34.673H32.1921V31.3307H32.6278L33.4242 33.3895C33.4213 33.3726 33.3948 33.2328 33.3948 33.1503V31.3311H33.8786V34.6733H33.8782ZM35.6816 34.6733H35.1849V31.3311H35.6816V34.6733ZM37.7776 34.6733H37.3419L36.5448 32.5702C36.5476 32.5871 36.5749 32.7269 36.5749 32.8094V34.673H36.0911V31.3307H36.5268L37.3239 33.3895C37.321 33.3726 37.2938 33.2328 37.2938 33.1503V31.3311H37.7776V34.6733ZM39.8387 34.0431C39.8387 34.428 39.5946 34.6733 39.1937 34.6733H38.1784V31.3311H39.1937C39.5993 31.3311 39.8387 31.5804 39.8387 31.9652V34.0431ZM40.7273 34.6733H40.2302V31.3311H40.7273V34.6733ZM42.8232 34.6733H42.3308L42.2303 34.0385H41.6073L41.5068 34.6733H41.0144V34.6647L41.6593 31.3264H42.1826L42.8229 34.6647V34.6733H42.8232ZM44.8696 29.1429C44.786 29.3054 44.5908 29.3742 44.4246 29.2996C42.947 28.5898 43.12 27.5532 43.2625 27.1431C43.2891 27.0639 43.2754 26.9767 43.2259 26.9096C42.9578 26.5645 42.8548 26.118 42.9434 25.6896C43.0734 25.2702 43.3601 24.9178 43.7441 24.7067C43.9053 24.6209 44.1048 24.6829 44.1902 24.8447C44.2757 25.0072 44.2139 25.2075 44.0528 25.2933C43.8382 25.4187 43.6745 25.6158 43.5909 25.85C43.5503 26.0935 43.6164 26.3432 43.7736 26.5331C43.9422 26.7742 43.986 27.0819 43.8895 27.36C43.7039 27.8965 43.9828 28.3466 44.7131 28.7C44.7139 28.7 44.7149 28.7008 44.7153 28.7011C44.8793 28.7808 44.9479 28.9782 44.8689 29.1432L44.8696 29.1429ZM49.8062 24.6649L48.9054 24.4797C48.8957 24.4761 48.8881 24.4674 48.8874 24.4563C48.8856 24.4458 48.8892 24.4347 48.8971 24.4271L49.5166 24.0189C49.5262 24.0124 49.5374 24.0077 49.5485 24.0048C49.6145 23.9861 49.6824 24.0246 49.701 24.0906L49.8772 24.5593C49.8981 24.6152 49.8568 24.6753 49.8058 24.6649H49.8062ZM41.6726 33.61H42.1603L41.9163 32.1011L41.6726 33.61ZM39.0455 31.7595H38.6748V34.2438H39.0322C39.2329 34.2438 39.3373 34.135 39.3373 33.9596V32.0387C39.3373 31.8593 39.2242 31.7591 39.0455 31.7591V31.7595ZM25.3595 33.61H25.848L25.6039 32.1011L25.3599 33.61H25.3595ZM25.6036 32.1011L25.3595 33.61H25.848L25.6039 32.1011H25.6036ZM39.0455 31.7595H38.6748V34.2438H39.0322C39.2329 34.2438 39.3373 34.135 39.3373 33.9596V32.0387C39.3373 31.8593 39.2242 31.7591 39.0455 31.7591V31.7595ZM39.0455 31.7595H38.6748V34.2438H39.0322C39.2329 34.2438 39.3373 34.135 39.3373 33.9596V32.0387C39.3373 31.8593 39.2242 31.7591 39.0455 31.7591V31.7595ZM25.6036 32.1011L25.3595 33.61H25.848L25.6039 32.1011H25.6036ZM25.6036 32.1011L25.3595 33.61H25.848L25.6039 32.1011H25.6036ZM25.6036 32.1011L25.3595 33.61H25.848L25.6039 32.1011H25.6036ZM25.6036 32.1011L25.3595 33.61H25.848L25.6039 32.1011H25.6036ZM25.6036 32.1011L25.3595 33.61H25.848L25.6039 32.1011H25.6036ZM25.6036 32.1011L25.3595 33.61H25.848L25.6039 32.1011H25.6036ZM25.6036 32.1011L25.3595 33.61H25.848L25.6039 32.1011H25.6036ZM25.6036 32.1011L25.3595 33.61H25.848L25.6039 32.1011H25.6036ZM25.6036 32.1011L25.3595 33.61H25.848L25.6039 32.1011H25.6036ZM25.6036 32.1011L25.3595 33.61H25.848L25.6039 32.1011H25.6036ZM25.6036 32.1011L25.3595 33.61H25.848L25.6039 32.1011H25.6036Z" fill="white"/>
</svg>
