<svg width="68" height="68" viewBox="0 0 68 68" fill="none" xmlns="http://www.w3.org/2000/svg">
<path d="M35.9955 0.61511C37.6502 -0.429178 39.8182 -0.117563 41.1116 1.35066C41.6092 1.91547 42.2566 2.32778 42.9788 2.53984C43.701 2.7519 44.4685 2.75504 45.1925 2.54889C47.0743 2.01306 49.0668 2.923 49.8941 4.69607C50.2123 5.37816 50.7173 5.95615 51.3505 6.36309C51.9837 6.77004 52.7192 6.98929 53.4719 6.99546C55.4284 7.01145 57.0838 8.44583 57.3782 10.3803C57.4914 11.1245 57.8131 11.8213 58.306 12.3901C58.7989 12.959 59.4428 13.3766 60.1633 13.5946C62.0361 14.1612 63.2203 16.0038 62.9577 17.9428C62.8567 18.6887 62.969 19.4479 63.2817 20.1326C63.5944 20.8173 64.0946 21.3994 64.7245 21.8115C66.3618 22.8828 66.9789 24.9844 66.1807 26.7708C65.8737 27.458 65.7676 28.2182 65.8747 28.9632C65.9818 29.7082 66.2978 30.4077 66.786 30.9805C68.0552 32.4698 68.0552 34.66 66.786 36.1493C66.2978 36.7221 65.9818 37.4216 65.8747 38.1666C65.7676 38.9116 65.8737 39.6718 66.1807 40.359C66.9789 42.1454 66.3619 44.2471 64.7245 45.3183C64.0946 45.7304 63.5944 46.3125 63.2817 46.9972C62.969 47.6819 62.8567 48.4411 62.9577 49.187C63.2204 51.126 62.0361 52.9686 60.1633 53.5353C59.4428 53.7532 58.7989 54.1708 58.306 54.7396C57.813 55.3085 57.4914 56.0053 57.3782 56.7495C57.0838 58.6838 55.4284 60.1182 53.4719 60.1343C52.7192 60.1405 51.9837 60.3597 51.3505 60.7667C50.7173 61.1736 50.2123 61.7516 49.8941 62.4337C49.0666 64.2068 47.0743 65.1167 45.1925 64.5809C44.4685 64.3748 43.701 64.378 42.9788 64.59C42.2566 64.8021 41.6092 65.2144 41.1116 65.7791C39.8182 67.2474 37.6502 67.5591 35.9955 66.5147C35.3589 66.113 34.6216 65.8997 33.8689 65.8997C33.1162 65.8997 32.3789 66.113 31.7424 66.5147C30.0877 67.559 27.9197 67.2472 26.6262 65.7791C26.1287 65.2143 25.4813 64.802 24.7591 64.59C24.0369 64.3779 23.2694 64.3748 22.5454 64.5809C20.6636 65.1167 18.6711 64.2068 17.8438 62.4337C17.5256 61.7516 17.0206 61.1737 16.3874 60.7667C15.7542 60.3598 15.0187 60.1405 14.266 60.1343C12.3095 60.1184 10.6541 58.684 10.3597 56.7495C10.2465 56.0053 9.92483 55.3085 9.43192 54.7397C8.93902 54.1708 8.29506 53.7532 7.57462 53.5353C5.70175 52.9686 4.51764 51.126 4.78015 49.187C4.88118 48.4411 4.76885 47.6819 4.45617 46.9972C4.1435 46.3125 3.64327 45.7304 3.01342 45.3183C1.37614 44.247 0.758952 42.1454 1.55714 40.359C1.86421 39.6718 1.97033 38.9116 1.86321 38.1666C1.7561 37.4216 1.44014 36.7221 0.951912 36.1493C-0.317304 34.66 -0.317304 32.4696 0.951912 30.9805C1.44014 30.4077 1.7561 29.7082 1.86321 28.9632C1.97033 28.2182 1.86421 27.458 1.55714 26.7708C0.758952 24.9844 1.37599 22.8827 3.01342 21.8115C3.64327 21.3994 4.1435 20.8173 4.45617 20.1326C4.76885 19.4479 4.88118 18.6887 4.78015 17.9428C4.5175 16.0038 5.70175 14.1612 7.57462 13.5946C8.29507 13.3766 8.93903 12.959 9.43194 12.3902C9.92485 11.8213 10.2465 11.1245 10.3597 10.3803C10.6541 8.44597 12.3095 7.01159 14.266 6.99546C15.0187 6.98932 15.7542 6.77008 16.3874 6.36314C17.0206 5.95619 17.5256 5.37818 17.8438 4.69607C18.6713 2.923 20.6636 2.01306 22.5454 2.54889C23.2694 2.75502 24.0369 2.75188 24.7591 2.53982C25.4813 2.32776 26.1287 1.91546 26.6262 1.35066C27.9197 -0.117563 30.0877 -0.429178 31.7424 0.61511C32.3789 1.01685 33.1162 1.23007 33.8689 1.23007C34.6216 1.23007 35.3589 1.01685 35.9955 0.61511Z" fill="#34A853"/>
<mask id="mask0_471_24" style="mask-type:alpha" maskUnits="userSpaceOnUse" x="19" y="18" width="30" height="30">
<rect x="19" y="18" width="30" height="30" fill="#D9D9D9"/>
</mask>
<g mask="url(#mask0_471_24)">
<path d="M34 36.0938L36.375 37.5312C36.6042 37.6771 36.8333 37.6719 37.0625 37.5156C37.2917 37.3594 37.375 37.1458 37.3125 36.875L36.6875 34.1563L38.8125 32.3125C39.0208 32.125 39.0833 31.901 39 31.6406C38.9167 31.3802 38.7292 31.2396 38.4375 31.2187L35.6562 31L34.5625 28.4375C34.4583 28.1875 34.2708 28.0625 34 28.0625C33.7292 28.0625 33.5417 28.1875 33.4375 28.4375L32.3438 31L29.5625 31.2187C29.2708 31.2396 29.0833 31.3802 29 31.6406C28.9167 31.901 28.9792 32.125 29.1875 32.3125L31.3125 34.1563L30.6875 36.875C30.625 37.1458 30.7083 37.3594 30.9375 37.5156C31.1667 37.6719 31.3958 37.6771 31.625 37.5312L34 36.0938ZM29.8125 43H26.5C25.8125 43 25.224 42.7552 24.7344 42.2656C24.2448 41.776 24 41.1875 24 40.5V37.1875L21.5937 34.75C21.3646 34.5 21.1875 34.224 21.0625 33.9219C20.9375 33.6198 20.875 33.3125 20.875 33C20.875 32.6875 20.9375 32.3802 21.0625 32.0781C21.1875 31.776 21.3646 31.5 21.5937 31.25L24 28.8125V25.5C24 24.8125 24.2448 24.224 24.7344 23.7344C25.224 23.2448 25.8125 23 26.5 23H29.8125L32.25 20.5937C32.5 20.3646 32.776 20.1875 33.0781 20.0625C33.3802 19.9375 33.6875 19.875 34 19.875C34.3125 19.875 34.6198 19.9375 34.9219 20.0625C35.224 20.1875 35.5 20.3646 35.75 20.5937L38.1875 23H41.5C42.1875 23 42.776 23.2448 43.2656 23.7344C43.7552 24.224 44 24.8125 44 25.5V28.8125L46.4063 31.25C46.6354 31.5 46.8125 31.776 46.9375 32.0781C47.0625 32.3802 47.125 32.6875 47.125 33C47.125 33.3125 47.0625 33.6198 46.9375 33.9219C46.8125 34.224 46.6354 34.5 46.4063 34.75L44 37.1875V40.5C44 41.1875 43.7552 41.776 43.2656 42.2656C42.776 42.7552 42.1875 43 41.5 43H38.1875L35.75 45.4063C35.5 45.6354 35.224 45.8125 34.9219 45.9375C34.6198 46.0625 34.3125 46.125 34 46.125C33.6875 46.125 33.3802 46.0625 33.0781 45.9375C32.776 45.8125 32.5 45.6354 32.25 45.4063L29.8125 43ZM30.875 40.5L34 43.625L37.125 40.5H41.5V36.125L44.625 33L41.5 29.875V25.5H37.125L34 22.375L30.875 25.5H26.5V29.875L23.375 33L26.5 36.125V40.5H30.875Z" fill="white"/>
</g>
</svg>
